<svg width="412" height="138" viewBox="0 0 412 138" fill="none" xmlns="http://www.w3.org/2000/svg">
<g clip-path="url(#clip0_2239_3837)">
<path d="M379.191 -3.97813e-05H32.8276C31.5651 -3.97813e-05 30.3177 -3.97811e-05 29.0585 0.00686022C28.0044 0.0137602 26.9588 0.0338047 25.8946 0.0506752C23.5827 0.0779364 21.2762 0.281743 18.9952 0.660325C16.7174 1.04715 14.511 1.77642 12.4505 2.82347C10.3926 3.87939 8.51221 5.25144 6.87758 6.88985C5.23436 8.52366 3.86461 10.4121 2.821 12.4826C1.77451 14.549 1.04887 16.7633 0.669142 19.0491C0.285804 21.3319 0.0795271 23.6412 0.052161 25.956C0.0202102 27.0137 0.0168361 28.075 0 29.1329V108.877C0.0168361 109.948 0.0202102 110.986 0.052161 112.058C0.0795355 114.372 0.285813 116.681 0.669142 118.964C1.04782 121.251 1.7735 123.467 2.821 125.534C3.86414 127.598 5.23408 129.479 6.87758 131.103C8.50602 132.749 10.3876 134.122 12.4505 135.17C14.511 136.22 16.7172 136.953 18.9952 137.346C21.2766 137.722 23.5828 137.926 25.8946 137.956C26.9588 137.98 28.0044 137.993 29.0585 137.993C30.3177 138 31.5652 138 32.8276 138H379.191C380.428 138 381.686 138 382.923 137.993C383.972 137.993 385.048 137.98 386.097 137.956C388.405 137.927 390.706 137.723 392.983 137.346C395.268 136.951 397.483 136.217 399.553 135.17C401.614 134.121 403.494 132.749 405.121 131.103C406.76 129.472 408.133 127.593 409.189 125.534C410.229 123.465 410.948 121.25 411.321 118.964C411.705 116.681 411.918 114.373 411.96 112.058C411.973 110.986 411.973 109.948 411.973 108.877C412 107.624 412 106.377 412 105.104V32.8996C412 31.6362 412 30.3829 411.973 29.1329C411.973 28.075 411.973 27.0137 411.96 25.9558C411.918 23.6408 411.705 21.3321 411.321 19.0489C410.947 16.7645 410.228 14.5503 409.189 12.4825C407.064 8.33239 403.694 4.95425 399.553 2.82316C397.483 1.77867 395.268 1.04959 392.983 0.660014C390.707 0.279765 388.405 0.075887 386.097 0.0501922C385.048 0.0333562 383.972 0.0131392 382.923 0.00641172C381.686 -0.000488281 380.428 -0.000488281 379.191 -0.000488281V-3.97813e-05Z" fill="#A6A6A6"/>
<path d="M29.0754 134.982C28.0264 134.982 27.0028 134.969 25.962 134.945C23.8059 134.917 21.6549 134.729 19.5266 134.382C17.542 134.04 15.6195 133.403 13.8225 132.492C12.0419 131.589 10.4179 130.405 9.01264 128.985C7.58704 127.582 6.40017 125.954 5.49905 124.167C4.58801 122.368 3.95751 120.44 3.62952 118.45C3.27532 116.311 3.08369 114.149 3.05626 111.981C3.03444 111.253 3.00586 108.831 3.00586 108.831V29.1338C3.00586 29.1338 3.0363 26.7484 3.05644 26.0476C3.08269 23.8833 3.27321 21.7242 3.62635 19.589C3.95494 17.5932 4.58593 15.6595 5.49747 13.8547C6.39528 12.0687 7.57556 10.44 8.99257 9.03178C10.408 7.61018 12.0372 6.41987 13.8208 5.50426C15.6137 4.5965 17.5326 3.96391 19.5131 3.62766C21.6484 3.27772 23.8069 3.08852 25.9704 3.06166L29.0771 3.01953H382.906L386.05 3.06335C388.194 3.08887 390.333 3.27638 392.448 3.62428C394.449 3.96475 396.388 4.60175 398.201 5.51436C401.775 7.35958 404.682 10.2789 406.516 13.8631C407.413 15.6554 408.034 17.5734 408.359 19.5519C408.716 21.7047 408.916 23.8808 408.957 26.0628C408.967 27.0398 408.967 28.0893 408.967 29.1338C408.994 30.4275 408.994 31.6589 408.994 32.9004V105.104C408.994 106.358 408.994 107.581 408.967 108.814C408.967 109.936 408.967 110.963 408.954 112.021C408.914 114.164 408.717 116.302 408.365 118.416C408.044 120.42 407.417 122.364 406.506 124.177C405.599 125.945 404.419 127.559 403.009 128.958C401.603 130.386 399.976 131.577 398.191 132.486C396.383 133.403 394.447 134.043 392.448 134.382C390.32 134.731 388.169 134.919 386.013 134.945C385.004 134.969 383.948 134.982 382.923 134.982L379.191 134.989L29.0754 134.982Z" fill="black"/>
<path d="M85.2749 70.038C85.3119 67.1584 86.0752 64.335 87.4938 61.8305C88.9124 59.3259 90.9402 57.2216 93.3884 55.7134C91.8331 53.4876 89.7813 51.6558 87.3959 50.3636C85.0105 49.0714 82.3573 48.3544 79.647 48.2694C73.8654 47.6613 68.2604 51.7361 65.3142 51.7361C62.311 51.7361 57.7749 48.3298 52.8903 48.4305C49.7307 48.5328 46.6515 49.4534 43.9527 51.1027C41.2538 52.752 39.0273 55.0737 37.4901 57.8416C30.8314 69.3937 35.7982 86.3713 42.1767 95.7091C45.368 100.282 49.0977 105.389 53.9779 105.208C58.7535 105.01 60.5371 102.157 66.3017 102.157C72.0128 102.157 73.6862 105.208 78.6654 105.093C83.7899 105.009 87.0185 100.5 90.0978 95.8843C92.3908 92.6262 94.1552 89.0254 95.3257 85.2151C92.3486 83.9534 89.8079 81.8413 88.0206 79.1424C86.2333 76.4435 85.2783 73.2771 85.2749 70.038V70.038Z" fill="white"/>
<path d="M75.8673 42.1286C78.6613 38.7676 80.0378 34.4475 79.7045 30.0859C75.4358 30.5352 71.4927 32.5795 68.6609 35.8116C67.2763 37.3905 66.2159 39.2274 65.5403 41.2173C64.8646 43.2072 64.5869 45.3109 64.7231 47.4084C66.8583 47.4304 68.9705 46.9667 70.9009 46.0521C72.8312 45.1376 74.5293 43.7961 75.8673 42.1286Z" fill="white"/>
<path d="M145.639 93.6344H129.342L125.428 105.214H118.525L133.962 62.3721H141.133L156.57 105.214H149.549L145.639 93.6344ZM131.03 88.2909H143.948L137.58 69.4979H137.401L131.03 88.2909Z" fill="white"/>
<path d="M189.906 89.597C189.906 99.3035 184.721 105.54 176.897 105.54C174.915 105.644 172.944 105.186 171.21 104.22C169.475 103.253 168.047 101.817 167.089 100.075H166.941V115.546H160.543V73.9776H166.736V79.1728H166.854C167.856 77.4393 169.308 76.0104 171.056 75.038C172.803 74.0656 174.781 73.5862 176.78 73.6508C184.691 73.6508 189.906 79.9174 189.906 89.597ZM183.329 89.597C183.329 83.2731 180.068 79.1155 175.092 79.1155C170.203 79.1155 166.915 83.3607 166.915 89.597C166.915 95.8905 170.203 100.105 175.092 100.105C180.068 100.105 183.329 95.9781 183.329 89.597Z" fill="white"/>
<path d="M224.214 89.5969C224.214 99.3034 219.03 105.54 211.206 105.54C209.224 105.644 207.253 105.186 205.518 104.22C203.784 103.253 202.356 101.817 201.398 100.075H201.25V115.546H194.852V73.9776H201.045V79.1728H201.163C202.164 77.4393 203.616 76.0103 205.364 75.038C207.112 74.0656 209.09 73.5862 211.088 73.6508C219 73.6508 224.214 79.9174 224.214 89.5969ZM217.638 89.5969C217.638 83.2731 214.376 79.1155 209.4 79.1155C204.511 79.1155 201.223 83.3606 201.223 89.5969C201.223 95.8905 204.511 100.105 209.4 100.105C214.376 100.105 217.638 95.9781 217.638 89.5969H217.638Z" fill="white"/>
<path d="M246.892 93.2763C247.366 97.5248 251.485 100.314 257.113 100.314C262.506 100.314 266.386 97.5247 266.386 93.6939C266.386 90.3686 264.046 88.3775 258.505 87.0129L252.964 85.6754C245.113 83.7752 241.468 80.0961 241.468 74.1259C241.468 66.734 247.897 61.6567 257.026 61.6567C266.06 61.6567 272.253 66.734 272.462 74.1259H266.003C265.616 69.8505 262.089 67.2697 256.935 67.2697C251.78 67.2697 248.253 69.8808 248.253 73.6812C248.253 76.7101 250.506 78.4924 256.017 79.8567L260.727 81.0157C269.499 83.0945 273.144 86.6254 273.144 92.8919C273.144 100.907 266.773 105.927 256.639 105.927C247.157 105.927 240.755 101.025 240.342 93.276L246.892 93.2763Z" fill="white"/>
<path d="M286.951 66.5859V73.9778H292.879V79.0551H286.951V96.2748C286.951 98.9499 288.138 100.196 290.744 100.196C291.448 100.184 292.15 100.135 292.849 100.048V105.095C291.677 105.314 290.486 105.414 289.295 105.392C282.984 105.392 280.523 103.016 280.523 96.9586V79.0551H275.99V73.9778H280.522V66.5859H286.951Z" fill="white"/>
<path d="M296.318 89.5972C296.318 79.7694 302.095 73.5938 311.102 73.5938C320.14 73.5938 325.89 79.7693 325.89 89.5972C325.89 99.4519 320.17 105.601 311.102 105.601C302.037 105.601 296.318 99.4519 296.318 89.5972ZM319.37 89.5972C319.37 82.8555 316.287 78.8766 311.102 78.8766C305.918 78.8766 302.838 82.8858 302.838 89.5972C302.838 96.3658 305.918 100.314 311.102 100.314C316.287 100.314 319.37 96.3658 319.37 89.5972H319.37Z" fill="white"/>
<path d="M331.158 73.9783H337.261V79.2947H337.409C337.822 77.6343 338.792 76.1669 340.158 75.1392C341.523 74.1115 343.2 73.5861 344.907 73.6514C345.644 73.6488 346.379 73.7291 347.099 73.8907V79.8877C346.168 79.6027 345.197 79.4718 344.224 79.5003C343.294 79.4625 342.368 79.6267 341.508 79.9817C340.647 80.3366 339.874 80.8739 339.241 81.5566C338.607 82.2394 338.129 83.0514 337.838 83.9369C337.547 84.8224 337.451 85.7604 337.557 86.6866V105.214H331.158L331.158 73.9783Z" fill="white"/>
<path d="M376.599 96.039C375.738 101.709 370.228 105.601 363.177 105.601C354.109 105.601 348.48 99.5125 348.48 89.7454C348.48 79.948 354.139 73.5938 362.908 73.5938C371.532 73.5938 376.956 79.5302 376.956 89.0008V91.1975H354.939V91.585C354.838 92.7345 354.981 93.8925 355.361 94.9822C355.74 96.0718 356.346 97.0681 357.14 97.9049C357.933 98.7417 358.894 99.3999 359.961 99.8356C361.027 100.271 362.174 100.475 363.325 100.432C364.837 100.574 366.354 100.223 367.651 99.4318C368.948 98.6402 369.956 97.4503 370.524 96.0389L376.599 96.039ZM354.97 86.7165H370.554C370.611 85.6829 370.455 84.6486 370.094 83.6784C369.734 82.7083 369.177 81.8232 368.459 81.0788C367.742 80.3344 366.878 79.7468 365.922 79.3527C364.967 78.9587 363.941 78.7667 362.908 78.789C361.866 78.7827 360.833 78.9833 359.869 79.3792C358.905 79.7751 358.028 80.3583 357.29 81.0954C356.552 81.8324 355.967 82.7086 355.569 83.6734C355.171 84.6382 354.967 85.6725 354.97 86.7166V86.7165Z" fill="white"/>
<path d="M130.237 30.122C131.578 30.0255 132.924 30.2286 134.178 30.7165C135.432 31.2045 136.562 31.9651 137.486 32.9437C138.411 33.9222 139.108 35.0941 139.526 36.375C139.944 37.6559 140.073 39.0138 139.903 40.3507C139.903 46.9273 136.356 50.7076 130.237 50.7076H122.816V30.122H130.237ZM126.007 47.7963H129.881C130.839 47.8538 131.798 47.6963 132.688 47.3354C133.579 46.9744 134.377 46.4192 135.026 45.71C135.675 45.0008 136.158 44.1555 136.44 43.2356C136.722 42.3158 136.795 41.3446 136.655 40.3926C136.785 39.4445 136.704 38.4793 136.418 37.5662C136.132 36.6531 135.648 35.8147 135 35.1112C134.353 34.4076 133.558 33.8563 132.673 33.4966C131.788 33.137 130.834 32.978 129.881 33.0311H126.007V47.7963Z" fill="white"/>
<path d="M143.511 42.9326C143.414 41.9117 143.53 40.8816 143.853 39.9085C144.176 38.9353 144.699 38.0406 145.387 37.2817C146.076 36.5227 146.915 35.9163 147.851 35.5014C148.787 35.0864 149.799 34.8721 150.822 34.8721C151.846 34.8721 152.858 35.0864 153.794 35.5014C154.73 35.9163 155.569 36.5227 156.258 37.2817C156.946 38.0406 157.468 38.9353 157.792 39.9085C158.115 40.8816 158.231 41.9117 158.134 42.9326C158.233 43.9545 158.118 44.986 157.796 45.9607C157.473 46.9354 156.951 47.8318 156.263 48.5922C155.574 49.3527 154.734 49.9603 153.797 50.3762C152.861 50.792 151.847 51.0069 150.822 51.0069C149.798 51.0069 148.784 50.792 147.847 50.3762C146.911 49.9603 146.071 49.3527 145.382 48.5922C144.694 47.8318 144.171 46.9354 143.849 45.9607C143.527 44.986 143.412 43.9545 143.511 42.9326V42.9326ZM154.987 42.9326C154.987 39.5651 153.477 37.5959 150.827 37.5959C148.168 37.5959 146.672 39.5651 146.672 42.9326C146.672 46.327 148.168 48.2811 150.827 48.2811C153.477 48.2811 154.987 46.3135 154.987 42.9326H154.987Z" fill="white"/>
<path d="M177.57 50.707H174.396L171.192 39.2654H170.95L167.759 50.707H164.615L160.342 35.1719H163.445L166.222 47.0261H166.451L169.639 35.1719H172.574L175.761 47.0261H176.003L178.767 35.1719H181.827L177.57 50.707Z" fill="white"/>
<path d="M185.418 35.1721H188.363V37.64H188.592C188.98 36.7536 189.634 36.0106 190.463 35.5144C191.293 35.0183 192.256 34.7938 193.218 34.8722C193.973 34.8154 194.73 34.9294 195.435 35.2057C196.139 35.482 196.772 35.9136 197.288 36.4686C197.803 37.0235 198.187 37.6875 198.412 38.4113C198.636 39.1352 198.695 39.9004 198.585 40.6503V50.707H195.525V41.4202C195.525 38.9237 194.442 37.6821 192.18 37.6821C191.667 37.6582 191.156 37.7456 190.681 37.9382C190.205 38.1308 189.777 38.4241 189.426 38.798C189.074 39.172 188.807 39.6177 188.644 40.1046C188.48 40.5915 188.423 41.1081 188.478 41.6189V50.7072H185.418L185.418 35.1721Z" fill="white"/>
<path d="M203.461 29.1074H206.521V50.707H203.461V29.1074Z" fill="white"/>
<path d="M210.777 42.9329C210.679 41.9119 210.796 40.8818 211.119 39.9086C211.442 38.9354 211.965 38.0407 212.653 37.2817C213.342 36.5227 214.181 35.9163 215.117 35.5014C216.053 35.0864 217.065 34.8721 218.089 34.8721C219.112 34.8721 220.125 35.0864 221.061 35.5014C221.997 35.9163 222.836 36.5227 223.524 37.2817C224.213 38.0407 224.735 38.9354 225.059 39.9086C225.382 40.8818 225.498 41.9119 225.401 42.9329C225.5 43.9549 225.385 44.9864 225.063 45.9611C224.74 46.9358 224.218 47.8321 223.529 48.5925C222.841 49.3529 222.001 49.9606 221.064 50.3764C220.127 50.7922 219.114 51.0071 218.089 51.0071C217.064 51.0071 216.051 50.7922 215.114 50.3764C214.177 49.9606 213.337 49.3529 212.648 48.5925C211.96 47.8321 211.437 46.9358 211.115 45.9611C210.793 44.9864 210.677 43.9549 210.777 42.9329V42.9329ZM222.252 42.9329C222.252 39.5654 220.742 37.5962 218.093 37.5962C215.433 37.5962 213.937 39.5654 213.937 42.9329C213.937 46.3273 215.434 48.2814 218.093 48.2814C220.742 48.2814 222.252 46.3138 222.252 42.9329H222.252Z" fill="white"/>
<path d="M228.623 46.3136C228.623 43.5173 230.701 41.9051 234.389 41.676L238.589 41.4335V40.0925C238.589 38.4518 237.506 37.5253 235.415 37.5253C233.707 37.5253 232.523 38.1536 232.184 39.2519H229.222C229.534 36.5836 232.039 34.8721 235.556 34.8721C239.443 34.8721 241.635 36.811 241.635 40.0925V50.707H238.69V48.5238H238.448C237.956 49.3069 237.266 49.9454 236.448 50.3739C235.63 50.8024 234.713 51.0057 233.791 50.963C233.14 51.0308 232.482 50.9612 231.86 50.7587C231.238 50.5562 230.664 50.2253 230.178 49.7872C229.691 49.3492 229.301 48.8138 229.033 48.2155C228.765 47.6172 228.626 46.9693 228.623 46.3136V46.3136ZM238.589 44.9862V43.6874L234.803 43.93C232.668 44.0732 231.699 44.8009 231.699 46.1704C231.699 47.5686 232.91 48.3823 234.574 48.3823C235.062 48.4317 235.555 48.3824 236.023 48.2372C236.491 48.092 236.926 47.8539 237.3 47.537C237.675 47.2202 237.982 46.831 238.203 46.3928C238.425 45.9546 238.556 45.4762 238.589 44.9862V44.9862Z" fill="white"/>
<path d="M245.656 42.9327C245.656 38.0239 248.175 34.9142 252.092 34.9142C253.061 34.8695 254.022 35.102 254.864 35.5846C255.706 36.0673 256.393 36.7801 256.846 37.6397H257.075V29.1074H260.134V50.707H257.202V48.2525H256.96C256.473 49.1064 255.761 49.8103 254.903 50.2881C254.045 50.7658 253.073 50.9992 252.092 50.963C248.148 50.9632 245.656 47.8534 245.656 42.9327ZM248.817 42.9327C248.817 46.2278 250.367 48.2105 252.959 48.2105C255.538 48.2105 257.132 46.1992 257.132 42.9462C257.132 39.7085 255.521 37.6685 252.959 37.6685C250.384 37.6685 248.817 39.6647 248.817 42.9327H248.817Z" fill="white"/>
<path d="M272.79 42.9326C272.693 41.9117 272.81 40.8816 273.133 39.9085C273.456 38.9353 273.978 38.0406 274.667 37.2817C275.355 36.5227 276.194 35.9163 277.13 35.5014C278.066 35.0864 279.078 34.8721 280.102 34.8721C281.125 34.8721 282.137 35.0864 283.073 35.5014C284.009 35.9163 284.848 36.5227 285.537 37.2817C286.225 38.0406 286.748 38.9353 287.071 39.9085C287.394 40.8816 287.51 41.9117 287.413 42.9326C287.512 43.9545 287.397 44.986 287.075 45.9607C286.753 46.9354 286.231 47.8318 285.542 48.5922C284.853 49.3527 284.014 49.9603 283.077 50.3762C282.14 50.792 281.126 51.0069 280.102 51.0069C279.077 51.0069 278.064 50.792 277.127 50.3762C276.19 49.9603 275.35 49.3527 274.662 48.5922C273.973 47.8318 273.451 46.9354 273.129 45.9607C272.806 44.986 272.691 43.9545 272.79 42.9326V42.9326ZM284.266 42.9326C284.266 39.5651 282.756 37.5959 280.107 37.5959C277.447 37.5959 275.951 39.5651 275.951 42.9326C275.951 46.327 277.447 48.2811 280.107 48.2811C282.756 48.2811 284.266 46.3135 284.266 42.9326Z" fill="white"/>
<path d="M291.518 35.1721H294.463V37.64H294.692C295.079 36.7536 295.734 36.0106 296.563 35.5144C297.392 35.0183 298.355 34.7938 299.318 34.8722C300.072 34.8154 300.83 34.9294 301.534 35.2057C302.239 35.482 302.872 35.9136 303.387 36.4686C303.903 37.0235 304.287 37.6875 304.511 38.4113C304.736 39.1352 304.795 39.9004 304.684 40.6503V50.707H301.625V41.4202C301.625 38.9237 300.542 37.6821 298.279 37.6821C297.767 37.6582 297.256 37.7456 296.78 37.9382C296.305 38.1308 295.877 38.4241 295.525 38.798C295.174 39.172 294.907 39.6177 294.743 40.1046C294.58 40.5915 294.523 41.1081 294.577 41.6189V50.7072H291.518V35.1721Z" fill="white"/>
<path d="M321.977 31.3042V35.2427H325.336V37.8252H321.977V45.8134C321.977 47.4407 322.646 48.1533 324.17 48.1533C324.56 48.152 324.949 48.1284 325.336 48.0825V50.6363C324.787 50.7348 324.23 50.7872 323.672 50.793C320.269 50.793 318.914 49.5935 318.914 46.5984V37.825H316.453V35.2426H318.914V31.3042H321.977Z" fill="white"/>
<path d="M329.512 29.1074H332.544V37.6684H332.787C333.193 36.7738 333.865 36.0265 334.711 35.5285C335.557 35.0305 336.536 34.806 337.514 34.8855C338.264 34.8446 339.014 34.9701 339.711 35.2532C340.407 35.5362 341.033 35.9698 341.543 36.523C342.053 37.0761 342.435 37.7353 342.661 38.4533C342.888 39.1714 342.953 39.9307 342.853 40.6771V50.707H339.79V41.4334C339.79 38.952 338.637 37.6953 336.475 37.6953C335.949 37.6521 335.42 37.7246 334.925 37.9076C334.43 38.0906 333.981 38.3798 333.609 38.755C333.237 39.1301 332.952 39.5821 332.773 40.0794C332.593 40.5767 332.525 41.1072 332.572 41.6339V50.7069H329.512L329.512 29.1074Z" fill="white"/>
<path d="M360.692 46.5127C360.276 47.9325 359.375 49.1607 358.147 49.9823C356.919 50.8039 355.442 51.1667 353.974 51.0071C352.952 51.0341 351.937 50.8381 350.999 50.4326C350.061 50.0272 349.222 49.422 348.541 48.659C347.859 47.8961 347.352 46.9937 347.053 46.0145C346.755 45.0354 346.673 44.0028 346.812 42.9886C346.676 41.9712 346.76 40.9365 347.058 39.9544C347.355 38.9722 347.86 38.0657 348.538 37.2961C349.216 36.5265 350.051 35.9118 350.986 35.4936C351.922 35.0755 352.936 34.8636 353.96 34.8723C358.274 34.8723 360.877 37.8255 360.877 42.7038V43.7736H349.929V43.9454C349.881 44.5155 349.953 45.0894 350.139 45.6302C350.325 46.171 350.622 46.6668 351.011 47.0858C351.4 47.5048 351.872 47.8378 352.396 48.0634C352.921 48.289 353.487 48.4023 354.058 48.3959C354.79 48.484 355.531 48.3519 356.188 48.0166C356.845 47.6812 357.387 47.1577 357.746 46.5126L360.692 46.5127ZM349.929 41.5062H357.76C357.798 40.9848 357.728 40.4611 357.552 39.9687C357.377 39.4763 357.1 39.0262 356.741 38.6471C356.382 38.2681 355.947 37.9687 355.465 37.768C354.983 37.5672 354.465 37.4698 353.943 37.4817C353.414 37.4751 352.889 37.5746 352.399 37.7745C351.909 37.9745 351.464 38.2707 351.089 38.6457C350.715 39.0208 350.42 39.4671 350.221 39.9584C350.021 40.4496 349.922 40.9759 349.929 41.5062H349.929Z" fill="white"/>
</g>
<defs>
<clipPath id="clip0_2239_3837">
<rect width="412" height="138" fill="white"/>
</clipPath>
</defs>
</svg>
