<svg width="370" height="369" viewBox="0 0 370 369" fill="none" xmlns="http://www.w3.org/2000/svg">
<g clip-path="url(#clip0_2237_3713)">
<path d="M296 147.6C336.806 147.6 370 114.496 370 73.8C370 33.1043 336.806 0 296 0C266.368 0 240.819 17.4981 229.013 42.6446L209.197 35.3505C209.432 33.837 209.667 32.3235 209.667 30.75C209.667 13.7955 195.834 0 178.833 0C161.833 0 148 13.7955 148 30.75C148 47.7045 161.833 61.5 178.833 61.5C189.878 61.5 199.51 55.6263 204.954 46.8998L224.737 54.1819C223 60.443 222 66.9984 222 73.8C222 81.8569 223.343 89.5924 225.749 96.8565L157.927 125.522C145.51 102.109 120.861 86.1 92.5 86.1C83.3102 86.1 74.542 87.8597 66.4151 90.9227L49.3574 55.1728C56.7887 49.5513 61.6667 40.7438 61.6667 30.75C61.6667 13.7955 47.8338 0 30.8333 0C13.8328 0 0 13.7955 0 30.75C0 47.7045 13.8328 61.5 30.8333 61.5C33.3988 61.5 35.8588 61.0946 38.2466 60.497L55.2832 96.2109C33.3235 109.027 18.5 132.742 18.5 159.9C18.5 185.41 31.55 207.926 51.3327 221.184L40.0532 241.406C37.1174 240.484 34.0642 239.85 30.8333 239.85C13.8328 239.85 0 253.645 0 270.6C0 287.555 13.8328 301.35 30.8333 301.35C47.8338 301.35 61.6667 287.555 61.6667 270.6C61.6667 261.288 57.406 253.03 50.8328 247.39L62.1364 227.127C71.4105 231.313 81.6722 233.7 92.5 233.7C109.422 233.7 124.986 227.943 137.467 218.373L161.739 245.003C149.43 258.189 141.833 275.804 141.833 295.2C141.833 298.963 142.21 302.629 142.752 306.239L114.195 312.998C109.281 302.518 98.6787 295.2 86.3333 295.2C69.3328 295.2 55.5 308.995 55.5 325.95C55.5 342.905 69.3328 356.7 86.3333 356.7C103.334 356.7 117.167 342.905 117.167 325.95C117.167 325.611 117.073 325.292 117.067 324.953L145.57 318.214C155.29 347.664 183.088 369 215.833 369C256.639 369 289.833 335.896 289.833 295.2C289.833 282.582 286.633 270.699 281.008 260.306L317.231 236.817C322.832 242.475 330.588 246 339.167 246C356.167 246 370 232.205 370 215.25C370 198.295 356.167 184.5 339.167 184.5C322.166 184.5 308.333 198.295 308.333 215.25C308.333 219.223 309.152 222.998 310.534 226.487L274.227 250.027C266.961 240.712 257.528 233.19 246.667 228.196L276.765 144.981C282.908 146.633 289.34 147.6 296 147.6V147.6ZM178.833 49.2C168.635 49.2 160.333 40.9209 160.333 30.75C160.333 20.5791 168.635 12.3 178.833 12.3C189.032 12.3 197.333 20.5791 197.333 30.75C197.333 40.9209 189.032 49.2 178.833 49.2ZM12.3333 30.75C12.3333 20.5791 20.6348 12.3 30.8333 12.3C41.0318 12.3 49.3333 20.5791 49.3333 30.75C49.3333 40.9209 41.0318 49.2 30.8333 49.2C20.6348 49.2 12.3333 40.9209 12.3333 30.75ZM30.8333 289.05C20.6348 289.05 12.3333 280.771 12.3333 270.6C12.3333 260.429 20.6348 252.15 30.8333 252.15C41.0318 252.15 49.3333 260.429 49.3333 270.6C49.3333 280.771 41.0318 289.05 30.8333 289.05ZM86.3333 344.4C76.1348 344.4 67.8333 336.121 67.8333 325.95C67.8333 315.779 76.1348 307.5 86.3333 307.5C96.5318 307.5 104.833 315.779 104.833 325.95C104.833 336.121 96.5318 344.4 86.3333 344.4ZM339.167 196.8C349.365 196.8 357.667 205.079 357.667 215.25C357.667 225.421 349.365 233.7 339.167 233.7C328.968 233.7 320.667 225.421 320.667 215.25C320.667 205.079 328.968 196.8 339.167 196.8ZM259.684 123.393C262.436 109.169 275.01 98.4 289.833 98.4H302.167C316.99 98.4 329.564 109.169 332.316 123.393C322.115 130.841 309.586 135.3 296 135.3C282.414 135.3 269.885 130.841 259.684 123.393ZM296 86.1C285.802 86.1 277.5 77.8209 277.5 67.65C277.5 57.4791 285.802 49.2 296 49.2C306.198 49.2 314.5 57.4791 314.5 67.65C314.5 77.8209 306.198 86.1 296 86.1ZM296 12.3C330.004 12.3 357.667 39.8879 357.667 73.8C357.667 89.175 351.937 103.223 342.545 114.015C338.224 102.667 329.215 93.6103 317.99 89.139C323.449 83.5896 326.833 76.0132 326.833 67.65C326.833 50.6955 313 36.9 296 36.9C279 36.9 265.167 50.6955 265.167 67.65C265.167 76.0132 268.551 83.5896 274.01 89.139C262.785 93.6103 253.776 102.667 249.455 114.015C240.063 103.223 234.333 89.175 234.333 73.8C234.333 39.8879 261.996 12.3 296 12.3V12.3ZM30.8333 159.9C30.8333 125.988 58.496 98.4 92.5 98.4C126.504 98.4 154.167 125.988 154.167 159.9C154.167 175.323 148.4 189.407 138.961 200.214C134.655 188.824 125.628 179.722 114.372 175.239C119.825 169.69 123.21 162.113 123.21 153.75C123.21 136.795 109.377 123 92.3765 123C75.3761 123 61.5432 136.795 61.5432 153.75C61.5432 162.113 64.9277 169.69 70.3867 175.239C59.1946 179.689 50.1975 188.713 45.8616 200.016C36.5242 189.236 30.8333 175.233 30.8333 159.9V159.9ZM73.8765 153.75C73.8765 143.579 82.1781 135.3 92.3765 135.3C102.575 135.3 110.877 143.579 110.877 153.75C110.877 163.921 102.575 172.2 92.3765 172.2C82.1781 172.2 73.8765 163.921 73.8765 153.75ZM56.0811 209.412C58.8604 195.226 71.4165 184.5 86.2099 184.5H98.5432C113.394 184.5 125.992 195.305 128.705 209.574C118.525 216.977 106.035 221.4 92.5 221.4C78.8659 221.4 66.2977 216.911 56.0811 209.412ZM179.414 344.712C182.194 330.526 194.75 319.8 209.543 319.8H221.877C236.727 319.8 249.325 330.605 252.038 344.874C241.858 352.277 229.368 356.7 215.833 356.7C202.199 356.7 189.631 352.211 179.414 344.712ZM215.71 307.5C205.511 307.5 197.21 299.221 197.21 289.05C197.21 278.879 205.511 270.6 215.71 270.6C225.908 270.6 234.21 278.879 234.21 289.05C234.21 299.221 225.908 307.5 215.71 307.5ZM277.5 295.2C277.5 310.623 271.734 324.707 262.294 335.514C257.988 324.124 248.961 315.022 237.706 310.539C243.159 304.99 246.543 297.413 246.543 289.05C246.543 272.095 232.71 258.3 215.71 258.3C198.709 258.3 184.877 272.095 184.877 289.05C184.877 297.413 188.261 304.99 193.72 310.539C182.528 314.989 173.531 324.013 169.195 335.316C159.858 324.536 154.167 310.533 154.167 295.2C154.167 261.288 181.829 233.7 215.833 233.7C249.837 233.7 277.5 261.288 277.5 295.2ZM235.068 224.019C228.925 222.367 222.494 221.4 215.833 221.4C198.911 221.4 183.347 227.157 170.866 236.727L146.594 210.097C158.903 196.911 166.5 179.296 166.5 159.9C166.5 151.843 165.157 144.108 162.751 136.844L230.573 108.178C238.169 122.502 250.361 133.997 265.173 140.804L235.068 224.019Z" fill="#C4C4C4"/>
</g>
<defs>
<clipPath id="clip0_2237_3713">
<rect width="370" height="369" fill="white"/>
</clipPath>
</defs>
</svg>
