<svg width="360" height="360" viewBox="0 0 360 360" fill="none" xmlns="http://www.w3.org/2000/svg">
<path d="M354.727 308.792C357.64 308.792 360 306.43 360 303.518V286.798C360 264.703 342.466 246.635 320.585 245.756C328.975 238.229 334.264 227.313 334.264 215.182C334.264 192.53 315.835 174.102 293.183 174.102C271.376 174.102 253.49 191.185 252.187 212.67C248.347 213.162 245.469 216.343 245.469 220.324C245.469 221.749 244.913 223.089 243.906 224.097C242.897 225.105 241.556 225.66 240.131 225.66C237.189 225.66 234.795 223.266 234.795 220.324V206.312C241.042 203.484 245.403 197.195 245.403 189.903C245.403 182.609 241.041 176.319 234.791 173.491V157.362C234.791 127.15 210.212 102.571 180 102.571C149.788 102.571 125.209 127.15 125.209 157.362V173.491C118.959 176.319 114.597 182.609 114.597 189.903C114.597 197.196 118.958 203.484 125.205 206.312V220.324C125.205 221.749 124.65 223.089 123.642 224.097C122.633 225.105 121.293 225.66 119.869 225.66C118.444 225.66 117.103 225.105 116.095 224.097C115.087 223.089 114.531 221.749 114.531 220.324C114.531 216.654 112.027 213.548 108.439 212.771C108.23 212.726 108.021 212.691 107.812 212.663C106.506 191.181 88.6219 174.101 66.8166 174.101C44.1647 174.101 25.7358 192.529 25.7358 215.181C25.7358 227.313 31.0254 238.229 39.4151 245.756C17.5338 246.636 0 264.703 0 286.798V303.518C0 306.43 2.36039 308.792 5.27344 308.792C8.18648 308.792 10.5469 306.43 10.5469 303.518V286.798C10.5469 269.96 24.2452 256.261 41.0836 256.261H90.5189C91.5912 262.312 93.915 268.099 97.342 273.208C92.6002 280.618 89.8383 289.411 89.8383 298.842V349.453H40.3636V303.882C40.3636 302.484 39.8081 301.142 38.8195 300.154L34.4686 295.803C32.4084 293.743 29.07 293.743 27.0105 295.803C24.9511 297.862 24.9511 301.201 27.0105 303.26L29.8167 306.066V349.453H12.3469C11.3548 349.453 10.5469 348.646 10.5469 347.653V328.127C10.5469 325.215 8.18648 322.854 5.27344 322.854C2.36039 322.854 0 325.215 0 328.127V347.653C0 354.462 5.53852 360 12.3469 360H347.653C354.461 360 360 354.462 360 347.653V328.127C360 325.215 357.64 322.854 354.727 322.854C351.814 322.854 349.453 325.215 349.453 328.127V347.653C349.453 348.646 348.646 349.453 347.653 349.453H330.183V306.067L332.989 303.261C335.048 301.201 335.048 297.862 332.989 295.803C330.929 293.744 327.59 293.744 325.531 295.803L321.18 300.154C320.191 301.143 319.636 302.484 319.636 303.883V349.453H270.162V328.127C270.162 325.215 267.801 322.854 264.888 322.854C261.975 322.854 259.615 325.215 259.615 328.127V349.453H229.099C233.57 344.403 236.206 337.795 236.206 330.756V322.249L238.906 319.549C240.965 317.489 240.965 314.15 238.905 312.091C236.846 310.031 233.507 310.032 231.448 312.091L227.204 316.335C226.215 317.325 225.66 318.666 225.66 320.064V330.756C225.66 338.212 220.939 344.896 213.912 347.389L208.095 349.453H151.905L146.088 347.389C139.062 344.896 134.341 338.211 134.341 330.756V320.064C134.341 318.666 133.786 317.325 132.797 316.335L128.553 312.091C126.493 310.032 123.154 310.031 121.096 312.091C119.036 314.15 119.036 317.489 121.095 319.549L123.795 322.249V330.756C123.795 337.795 126.43 344.402 130.901 349.453H100.386V298.842C100.386 278.348 117.063 261.675 137.56 261.675H157.75V266.302C157.75 267.5 158.157 268.661 158.906 269.597L175.884 290.818C176.884 292.069 178.4 292.798 180.001 292.798C181.603 292.798 183.119 292.069 184.119 290.818L201.097 269.597C201.845 268.661 202.253 267.5 202.253 266.302V261.675H222.443C242.94 261.675 259.617 278.348 259.617 298.842V303.518C259.617 306.43 261.977 308.792 264.89 308.792C267.803 308.792 270.164 306.43 270.164 303.518V298.842C270.164 289.411 267.402 280.618 262.66 273.208C266.087 268.099 268.412 262.312 269.483 256.261H318.919C335.756 256.261 349.455 269.96 349.455 286.798V303.518C349.453 306.43 351.814 308.792 354.727 308.792V308.792ZM293.183 184.648C310.02 184.648 323.717 198.345 323.717 215.182C323.722 232.042 309.968 245.756 293.116 245.713C276.311 245.677 262.65 231.995 262.65 215.182C262.65 198.346 276.346 184.648 293.183 184.648ZM227.396 197.363H224.18V182.443H227.396C231.509 182.443 234.855 185.79 234.855 189.903C234.855 194.016 231.509 197.363 227.396 197.363ZM180 238.392C161.454 238.392 146.367 223.304 146.367 204.759V182.443H151.256C162.688 182.443 173.512 176.728 180 167.398C186.488 176.729 197.312 182.443 208.744 182.443H213.633V204.759C213.633 223.304 198.546 238.392 180 238.392V238.392ZM180 113.12C204.396 113.12 224.244 132.967 224.244 157.364V171.897H208.744C200.263 171.897 192.259 167.393 187.857 160.142L185.718 156.62C184.495 154.605 182.358 153.402 180 153.402C177.642 153.402 175.505 154.605 174.283 156.618L172.143 160.142C167.741 167.393 159.737 171.897 151.256 171.897H135.756V157.364C135.756 132.967 155.604 113.12 180 113.12V113.12ZM132.604 182.444H135.82V197.364H132.604C128.491 197.364 125.145 194.018 125.145 189.904C125.145 185.791 128.491 182.444 132.604 182.444ZM36.2834 215.182C36.2834 198.346 49.9802 184.649 66.8173 184.649C83.6543 184.649 97.3512 198.346 97.3512 215.182C97.3554 232.043 83.6016 245.756 66.7498 245.714C49.9437 245.678 36.2834 231.996 36.2834 215.182V215.182ZM137.559 251.128C124.691 251.128 113.006 256.256 104.413 264.564C101.768 259.695 100.384 254.263 100.384 248.569C100.384 246.171 100.64 243.77 101.142 241.446C101.656 239.091 102.417 236.799 103.407 234.627L106.213 228.45C106.881 229.568 107.693 230.611 108.637 231.556C111.638 234.556 115.626 236.208 119.869 236.208C124.111 236.208 128.099 234.556 131.1 231.555C134.101 228.555 135.752 224.566 135.752 220.324V207.91H135.944C137.003 222.835 145.5 235.73 157.749 242.902V251.128H137.559ZM180 279.082L168.296 264.452V247.353C172.026 248.38 175.948 248.939 180 248.939C184.052 248.939 187.973 248.38 191.704 247.353V264.452L180 279.082ZM222.441 251.128H202.25V242.902C214.499 235.73 222.997 222.835 224.055 207.91H224.247V220.324C224.247 229.082 231.372 236.208 240.131 236.208C244.373 236.208 248.361 234.556 251.363 231.555C252.308 230.61 253.119 229.568 253.786 228.45L256.594 234.632C258.599 239.032 259.615 243.72 259.615 248.569C259.615 254.263 258.232 259.695 255.586 264.564C246.995 256.256 235.309 251.128 222.441 251.128V251.128Z" fill="#C4C4C4"/>
<path d="M169.01 85.8853C172.041 88.9151 176.02 90.4296 180.001 90.4296C183.981 90.4296 187.961 88.9151 190.992 85.8846L221.854 55.0223C227.942 48.9347 231.295 40.8403 231.295 32.2313C231.295 23.6215 227.942 15.5278 221.854 9.44016C215.766 3.3525 207.671 0 199.062 0C192.111 0 185.495 2.18602 180.001 6.2325C174.506 2.18602 167.89 0 160.939 0C152.33 0 144.236 3.3525 138.149 9.44016C132.06 15.5278 128.707 23.6222 128.707 32.232C128.707 40.841 132.06 48.9354 138.148 55.023L169.01 85.8853ZM145.606 16.8982C149.701 12.8025 155.147 10.5469 160.939 10.5469C166.731 10.5469 172.176 12.8025 176.272 16.8982C178.332 18.9577 181.671 18.9577 183.73 16.8982C187.825 12.8025 193.271 10.5469 199.062 10.5469C204.854 10.5469 210.3 12.8025 214.396 16.8982C218.492 20.9939 220.747 26.4396 220.747 32.232C220.747 38.0236 218.492 43.4693 214.395 47.565L183.534 78.4273C181.586 80.3756 178.415 80.3756 176.468 78.4273L145.605 47.5643C141.509 43.4686 139.253 38.0236 139.253 32.2313C139.254 26.4396 141.51 20.9939 145.606 16.8982V16.8982Z" fill="#C4C4C4"/>
<path d="M282.192 145.306C285.223 148.336 289.203 149.851 293.184 149.851C297.164 149.851 301.144 148.335 304.175 145.306L335.036 114.443C341.125 108.356 344.478 100.261 344.478 91.6522C344.478 83.0424 341.125 74.9487 335.037 68.8611C328.949 62.7734 320.855 59.4209 312.246 59.4209C305.294 59.4209 298.679 61.6069 293.184 65.6534C287.69 61.6069 281.074 59.4209 274.123 59.4209C265.514 59.4209 257.419 62.7734 251.332 68.8611C245.244 74.9487 241.891 83.0431 241.891 91.6529C241.891 100.262 245.244 108.356 251.331 114.444L282.192 145.306ZM258.789 76.3191C262.884 72.2234 268.33 69.9678 274.122 69.9678C279.914 69.9678 285.359 72.2234 289.455 76.3191C291.515 78.3786 294.854 78.3786 296.913 76.3191C301.008 72.2234 306.454 69.9678 312.246 69.9678C318.038 69.9678 323.483 72.2234 327.58 76.3191C331.675 80.4148 333.931 85.8605 333.931 91.6529C333.931 97.4445 331.675 102.89 327.579 106.986L296.717 137.848C294.77 139.796 291.599 139.797 289.651 137.848L258.788 106.985C254.692 102.889 252.437 97.4445 252.437 91.6522C252.437 85.8605 254.692 80.4148 258.789 76.3191V76.3191Z" fill="#C4C4C4"/>
<path d="M55.8252 145.306C58.8556 148.336 62.836 149.851 66.8164 149.851C70.7968 149.851 74.7772 148.335 77.8077 145.306L108.669 114.443C114.758 108.356 118.111 100.261 118.111 91.6522C118.111 83.0424 114.758 74.9487 108.67 68.8611C102.582 62.7734 94.4879 59.4209 85.8788 59.4209C78.927 59.4209 72.3113 61.6069 66.8171 65.6534C61.3229 61.6069 54.7065 59.4209 47.7554 59.4209C39.1463 59.4209 31.052 62.7734 24.965 68.8611C18.8766 74.9487 15.5234 83.0431 15.5234 91.6529C15.5234 100.262 18.8766 108.356 24.9643 114.444L55.8252 145.306ZM32.4216 76.3191C36.5166 72.2234 41.9623 69.9678 47.7547 69.9678C53.547 69.9678 58.992 72.2234 63.0877 76.3191C65.1479 78.3786 68.4863 78.3786 70.5458 76.3191C74.6408 72.2234 80.0865 69.9678 85.8788 69.9678C91.6712 69.9678 97.1162 72.2234 101.213 76.3191C105.308 80.4148 107.564 85.8605 107.564 91.6529C107.564 97.4445 105.308 102.89 101.212 106.986L70.3496 137.848C68.4027 139.796 65.2323 139.797 63.2839 137.848L32.4209 106.985C28.3252 102.889 26.0696 97.4445 26.0696 91.6522C26.0696 85.8605 28.3252 80.4148 32.4216 76.3191V76.3191Z" fill="#C4C4C4"/>
</svg>
