<svg width="465" height="138" viewBox="0 0 465 138" fill="none" xmlns="http://www.w3.org/2000/svg">
<g clip-path="url(#clip0_2239_3872)">
<path d="M447.778 0H17.2222C7.71065 0 0 7.72309 0 17.25V120.75C0 130.277 7.71065 138 17.2222 138H447.778C457.289 138 465 130.277 465 120.75V17.25C465 7.72309 457.289 0 447.778 0Z" fill="black"/>
<path d="M447.778 2.76C451.615 2.76 455.294 4.28662 458.007 7.00402C460.72 9.72142 462.244 13.407 462.244 17.25V120.75C462.235 124.59 460.708 128.27 457.997 130.986C455.286 133.701 451.612 135.231 447.778 135.24H17.2222C13.3882 135.231 9.71384 133.701 7.00278 130.986C4.29173 128.27 2.76465 124.59 2.75555 120.75V17.25C2.76465 13.4098 4.29173 9.72952 7.00278 7.01409C9.71384 4.29866 13.3882 2.76911 17.2222 2.76H447.778V2.76ZM447.778 0H17.2222C12.6546 0 8.27407 1.81741 5.04427 5.05241C1.81448 8.28741 0 12.675 0 17.25V120.75C0 125.325 1.81448 129.713 5.04427 132.948C8.27407 136.183 12.6546 138 17.2222 138H447.778C452.345 138 456.726 136.183 459.956 132.948C463.186 129.713 465 125.325 465 120.75V17.25C465 12.675 463.186 8.28741 459.956 5.05241C456.726 1.81741 452.345 0 447.778 0Z" fill="#A6A6A6"/>
<path d="M163.335 35.3286C163.4 36.5947 163.204 37.8605 162.759 39.0475C162.315 40.2345 161.632 41.3173 160.752 42.2286C159.78 43.2521 158.601 44.0555 157.294 44.5851C155.987 45.1147 154.583 45.3582 153.174 45.2991C151.76 45.3307 150.356 45.0714 149.046 44.5373C147.737 44.0032 146.551 43.2057 145.562 42.1941C144.537 41.1982 143.729 40.0004 143.19 38.6763C142.65 37.3521 142.391 35.9303 142.427 34.5006C142.396 33.0665 142.658 31.6412 143.197 30.3122C143.736 28.9833 144.541 27.7787 145.562 26.7726C146.551 25.761 147.737 24.9635 149.046 24.4294C150.356 23.8954 151.76 23.6361 153.174 23.6676C154.629 23.674 156.068 23.967 157.411 24.5301C158.65 25.0458 159.757 25.8361 160.648 26.8416L158.823 28.6701C158.135 27.8511 157.267 27.2034 156.287 26.7783C155.306 26.3531 154.241 26.1622 153.174 26.2206C152.126 26.2069 151.085 26.4045 150.115 26.8016C149.145 27.1987 148.264 27.7872 147.525 28.5321C146.733 29.3047 146.113 30.2352 145.703 31.2634C145.294 32.2916 145.105 33.3945 145.148 34.5006C145.107 35.6065 145.297 36.7087 145.706 37.7366C146.116 38.7645 146.735 39.6952 147.525 40.4691C148.27 41.2031 149.153 41.7821 150.122 42.1729C151.092 42.5637 152.129 42.7585 153.174 42.7461C154.245 42.7765 155.311 42.5872 156.306 42.1897C157.301 41.7921 158.204 41.1949 158.961 40.4346C160.013 39.2931 160.624 37.8127 160.683 36.2601H153.174V33.7761H163.197C163.293 34.288 163.339 34.8079 163.335 35.3286V35.3286Z" fill="white" stroke="white" stroke-width="0.159607" stroke-miterlimit="10"/>
<path d="M179.21 26.6684H169.669V33.2579H178.28V35.7419H169.669V42.2969H179.21V44.8499H167.154V24.1499H179.21V26.6684Z" fill="white" stroke="white" stroke-width="0.159607" stroke-miterlimit="10"/>
<path d="M190.337 44.8499H187.753V26.6684H181.967V24.1499H196.192V26.6684H190.337V44.8499Z" fill="white" stroke="white" stroke-width="0.159607" stroke-miterlimit="10"/>
<path d="M206.455 44.8499V24.1499H209.107V44.8499H206.455Z" fill="white" stroke="white" stroke-width="0.159607" stroke-miterlimit="10"/>
<path d="M220.888 44.8499H218.236V26.6684H212.449V24.1499H226.675V26.6684H220.888V44.8499Z" fill="white" stroke="white" stroke-width="0.159607" stroke-miterlimit="10"/>
<path d="M253.54 42.1591C252.545 43.1563 251.364 43.9474 250.064 44.4872C248.763 45.0269 247.37 45.3048 245.962 45.3048C244.555 45.3048 243.161 45.0269 241.861 44.4872C240.561 43.9474 239.379 43.1563 238.384 42.1591C236.435 40.0801 235.35 37.335 235.35 34.4828C235.35 31.6306 236.435 28.8856 238.384 26.8066C239.377 25.8052 240.557 25.0104 241.858 24.4681C243.159 23.9257 244.553 23.6465 245.962 23.6465C247.371 23.6465 248.766 23.9257 250.066 24.4681C251.367 25.0104 252.547 25.8052 253.54 26.8066C255.487 28.8798 256.571 31.6191 256.571 34.4656C256.571 37.312 255.487 40.0513 253.54 42.1246V42.1591ZM240.348 40.4341C241.843 41.9131 243.86 42.7424 245.962 42.7424C248.064 42.7424 250.081 41.9131 251.577 40.4341C253.063 38.8165 253.888 36.6984 253.888 34.5001C253.888 32.3017 253.063 30.1837 251.577 28.5661C250.843 27.8213 249.969 27.2299 249.005 26.8263C248.041 26.4227 247.007 26.2148 245.962 26.2148C244.917 26.2148 243.883 26.4227 242.919 26.8263C241.956 27.2299 241.081 27.8213 240.348 28.5661C238.861 30.1837 238.037 32.3017 238.037 34.5001C238.037 36.6984 238.861 38.8165 240.348 40.4341V40.4341Z" fill="white" stroke="white" stroke-width="0.159607" stroke-miterlimit="10"/>
<path d="M260.328 44.8499V24.1499H263.531L273.589 40.2269V36.2594V24.1499H276.241V44.8499H273.486L262.98 27.9449V31.9469V44.8499H260.328Z" fill="white" stroke="white" stroke-width="0.159607" stroke-miterlimit="10"/>
<path d="M234.704 75.0377C231.802 75.0445 228.967 75.9132 226.558 77.5338C224.149 79.1544 222.274 81.4541 221.169 84.1423C220.065 86.8304 219.781 89.7862 220.354 92.6357C220.927 95.4853 222.331 98.1008 224.388 100.151C226.445 102.202 229.062 103.596 231.91 104.156C234.758 104.716 237.707 104.418 240.386 103.3C243.064 102.181 245.352 100.292 246.958 97.8712C248.565 95.4505 249.419 92.607 249.412 89.7002C249.44 87.7611 249.078 85.8361 248.348 84.0399C247.618 82.2438 246.535 80.6131 245.163 79.245C243.79 77.8769 242.157 76.7994 240.36 76.0766C238.564 75.3538 236.64 75.0005 234.704 75.0377V75.0377ZM234.704 98.6012C232.916 98.7329 231.13 98.322 229.579 97.4221C228.028 96.5222 226.783 95.175 226.007 93.5561C225.231 91.9372 224.961 90.1218 225.23 88.3466C225.5 86.5713 226.297 84.9185 227.518 83.6038C228.739 82.289 230.327 81.3732 232.076 80.9758C233.824 80.5784 235.651 80.7179 237.319 81.3759C238.987 82.034 240.419 83.1802 241.427 84.665C242.435 86.1499 242.973 87.9045 242.971 89.7002C243.027 90.8318 242.855 91.9632 242.467 93.0274C242.079 94.0917 241.482 95.0674 240.712 95.897C239.942 96.7266 239.013 97.3933 237.981 97.8577C236.949 98.3221 235.835 98.5749 234.704 98.6012ZM202.602 75.0377C200.618 74.9413 198.634 75.2496 196.772 75.9438C194.911 76.638 193.209 77.7038 191.77 79.0764C190.332 80.449 189.187 82.0999 188.404 83.9291C187.622 85.7582 187.218 87.7275 187.218 89.7175C187.218 91.7074 187.622 93.6767 188.404 95.5058C189.187 97.335 190.332 98.9859 191.77 100.359C193.209 101.731 194.911 102.797 196.772 103.491C198.634 104.185 200.618 104.494 202.602 104.397C204.587 104.494 206.57 104.185 208.432 103.491C210.294 102.797 211.996 101.731 213.434 100.359C214.873 98.9859 216.018 97.335 216.8 95.5058C217.583 93.6767 217.986 91.7074 217.986 89.7175C217.986 87.7275 217.583 85.7582 216.8 83.9291C216.018 82.0999 214.873 80.449 213.434 79.0764C211.996 77.7038 210.294 76.638 208.432 75.9438C206.57 75.2496 204.587 74.9413 202.602 75.0377V75.0377ZM202.602 98.6012C200.818 98.7049 199.044 98.2693 197.509 97.3511C195.975 96.4328 194.752 95.0742 193.998 93.4512C193.243 91.8282 192.993 90.0157 193.28 88.2487C193.566 86.4817 194.376 84.8416 195.604 83.5409C196.832 82.2403 198.422 81.3391 200.167 80.9542C201.913 80.5693 203.733 80.7184 205.393 81.3821C207.053 82.0459 208.476 83.1937 209.477 84.6768C210.477 86.16 211.011 87.91 211.007 89.7002C211.062 90.8433 210.887 91.9858 210.49 93.0592C210.094 94.1325 209.485 95.1145 208.7 95.946C207.915 96.7775 206.97 97.4413 205.922 97.8976C204.874 98.3539 203.745 98.5933 202.602 98.6012ZM164.438 79.5227V85.7672H179.318C179.084 88.6921 177.871 91.4521 175.873 93.5987C174.389 95.1131 172.605 96.3004 170.635 97.0846C168.666 97.8688 166.555 98.2326 164.438 98.1527C160.053 98.1527 155.847 96.408 152.747 93.3024C149.646 90.1968 147.904 85.9847 147.904 81.5927C147.904 77.2007 149.646 72.9886 152.747 69.883C155.847 66.7774 160.053 65.0327 164.438 65.0327C166.509 64.9996 168.567 65.3755 170.494 66.1392C172.421 66.9028 174.178 68.0391 175.667 69.4832L180.007 65.1017C177.965 63.0596 175.535 61.4486 172.861 60.3641C170.187 59.2796 167.323 58.7438 164.438 58.7882C158.399 58.7882 152.608 61.1908 148.338 65.4675C144.069 69.7442 141.67 75.5446 141.67 81.5927C141.67 87.6408 144.069 93.4413 148.338 97.7179C152.608 101.995 158.399 104.397 164.438 104.397C167.389 104.526 170.333 104.02 173.072 102.913C175.811 101.806 178.281 100.124 180.317 97.9802C183.938 94.0143 185.877 88.7933 185.724 83.4212C185.726 82.114 185.611 80.8092 185.38 79.5227H164.438ZM320.506 84.3872C319.637 81.7216 317.965 79.3911 315.72 77.7167C313.475 76.0423 310.766 75.1063 307.968 75.0377C306.084 75.034 304.219 75.4174 302.488 76.1642C300.758 76.9111 299.199 78.0054 297.908 79.3796C296.617 80.7539 295.62 82.3788 294.981 84.1539C294.341 85.9291 294.072 87.8167 294.19 89.7002C294.148 91.63 294.495 93.5486 295.209 95.3415C295.923 97.1344 296.989 98.7651 298.346 100.136C299.702 101.508 301.32 102.592 303.103 103.324C304.886 104.056 306.798 104.421 308.726 104.397C311.143 104.406 313.525 103.815 315.658 102.677C317.792 101.54 319.611 99.8902 320.953 97.8767L315.959 94.4267C315.205 95.6718 314.143 96.7009 312.876 97.4141C311.609 98.1273 310.179 98.5006 308.726 98.4977C307.234 98.5547 305.759 98.1607 304.493 97.367C303.228 96.5732 302.23 95.4165 301.63 94.0472L321.229 86.0777L320.506 84.3872ZM300.562 89.2517C300.497 88.1828 300.645 87.1117 300.997 86.1007C301.35 85.0896 301.899 84.1589 302.614 83.3626C303.329 82.5663 304.195 81.9205 305.161 81.4626C306.128 81.0048 307.175 80.744 308.243 80.6957C309.354 80.6224 310.462 80.8776 311.43 81.4296C312.397 81.9816 313.182 82.8061 313.686 83.8007L300.562 89.2517ZM284.649 103.5H291.09V60.3752H284.614L284.649 103.5ZM274.109 78.3152H273.868C272.908 77.214 271.722 76.3351 270.389 75.7393C269.057 75.1436 267.611 74.8453 266.152 74.8652C262.388 75.048 258.838 76.6745 256.239 79.4074C253.64 82.1404 252.19 85.7703 252.19 89.545C252.19 93.3196 253.64 96.9495 256.239 99.6825C258.838 102.415 262.388 104.042 266.152 104.225C267.612 104.249 269.059 103.953 270.392 103.357C271.725 102.761 272.912 101.88 273.868 100.775H274.109V103.328C274.109 108.951 271.112 111.953 266.29 111.953C264.674 111.919 263.105 111.402 261.785 110.467C260.465 109.532 259.455 108.223 258.884 106.709L253.304 109.055C254.358 111.584 256.139 113.741 258.421 115.253C260.703 116.764 263.382 117.561 266.118 117.542C273.661 117.542 279.896 113.091 279.896 102.258V75.9347H274.074L274.109 78.3152ZM266.738 98.6012C264.516 98.4051 262.448 97.3824 260.942 95.7348C259.435 94.0873 258.6 91.9342 258.6 89.7002C258.6 87.4662 259.435 85.3132 260.942 83.6656C262.448 82.018 264.516 80.9953 266.738 80.7992C267.846 80.8554 268.931 81.1344 269.929 81.6195C270.927 82.1046 271.817 82.786 272.547 83.623C273.276 84.46 273.83 85.4355 274.176 86.4914C274.521 87.5473 274.65 88.6621 274.557 89.7692C274.641 90.8701 274.503 91.9767 274.15 93.0228C273.797 94.0689 273.238 95.033 272.505 95.8575C271.771 96.682 270.88 97.35 269.883 97.8214C268.886 98.2928 267.805 98.558 266.703 98.6012H266.738ZM350.679 60.3752H335.282V103.5H341.689V87.1472H350.679C352.515 87.2793 354.358 87.0312 356.094 86.4183C357.829 85.8054 359.42 84.841 360.768 83.585C362.115 82.3291 363.189 80.8087 363.924 79.1185C364.659 77.4283 365.038 75.6046 365.038 73.7612C365.038 71.9178 364.659 70.0941 363.924 68.4039C363.189 66.7137 362.115 65.1933 360.768 63.9374C359.42 62.6814 357.829 61.717 356.094 61.1041C354.358 60.4912 352.515 60.2431 350.679 60.3752V60.3752ZM350.851 81.0752H341.689V66.3782H350.851C352.806 66.3782 354.681 67.156 356.063 68.5406C357.446 69.9252 358.222 71.8031 358.222 73.7612C358.222 75.7193 357.446 77.5972 356.063 78.9818C354.681 80.3663 352.806 81.1442 350.851 81.1442V81.0752ZM390.566 74.8997C388.221 74.7593 385.886 75.3082 383.848 76.4788C381.81 77.6495 380.159 79.391 379.096 81.4892L384.779 83.8697C385.51 82.6818 386.583 81.7438 387.858 81.1795C389.132 80.6152 390.547 80.4512 391.916 80.709C393.285 80.9669 394.544 81.6345 395.527 82.6237C396.51 83.613 397.17 84.8775 397.42 86.2502V86.6987C395.36 85.611 393.066 85.0426 390.738 85.0427C384.572 85.0427 378.303 88.4927 378.303 94.7372C378.364 96.0718 378.692 97.3806 379.267 98.5858C379.843 99.7911 380.654 100.868 381.653 101.753C382.653 102.638 383.819 103.313 385.084 103.738C386.349 104.162 387.686 104.328 389.016 104.225C390.632 104.318 392.245 103.977 393.686 103.237C395.127 102.497 396.345 101.385 397.213 100.016H397.42V103.466H403.62V86.9057C403.62 79.1777 397.937 74.9687 390.566 74.9687V74.8997ZM389.773 98.5322C387.672 98.5322 384.744 97.4627 384.744 94.8752C384.744 91.4252 388.396 90.2522 391.633 90.2522C393.679 90.2016 395.702 90.702 397.489 91.7012C397.27 93.5981 396.363 95.3485 394.941 96.6203C393.519 97.8921 391.68 98.597 389.773 98.6012V98.5322ZM426.216 75.8312L418.879 94.5302H418.638L410.991 75.8312H404.102L415.572 101.948L409.028 116.507H415.917L433.587 75.8312H426.216ZM368.349 103.431H374.756V60.3752H368.349V103.431Z" fill="white"/>
<path d="M35.9572 26.0128C34.8221 27.357 34.243 29.0849 34.3383 30.8428V107.157C34.243 108.915 34.8221 110.643 35.9572 111.987L36.1983 112.228L78.8749 69.4828V68.4823L36.1983 25.7368L35.9572 26.0128Z" fill="url(#paint0_linear_2239_3872)"/>
<path d="M93.1025 83.7659L78.877 69.4829V68.4824L93.1025 54.2339H93.4125L110.29 63.8249C115.078 66.5849 115.078 71.0699 110.29 73.7954L93.4125 83.3864L93.1025 83.7659Z" fill="url(#paint1_linear_2239_3872)"/>
<path d="M93.4084 83.559L78.8729 69L35.9551 111.987C36.9294 112.856 38.1784 113.353 39.4824 113.391C40.7865 113.429 42.0622 113.005 43.0851 112.194L93.4084 83.559" fill="url(#paint2_linear_2239_3872)"/>
<path d="M93.4084 54.4069L43.0851 25.7719C42.0555 24.972 40.7788 24.5582 39.4765 24.6023C38.1742 24.6464 36.9284 25.1456 35.9551 26.0134L78.8729 69.0004L93.4084 54.4069Z" fill="url(#paint3_linear_2239_3872)"/>
<path opacity="0.2" d="M93.0984 83.248L43.0851 111.711C42.0929 112.461 40.8837 112.866 39.6406 112.866C38.3976 112.866 37.1884 112.461 36.1962 111.711V111.711L35.9551 111.952L36.1962 112.194C37.1884 112.944 38.3976 113.349 39.6406 113.349C40.8837 113.349 42.0929 112.944 43.0851 112.194L93.4084 83.5585L93.0984 83.248Z" fill="black"/>
<path opacity="0.12" d="M35.9572 111.504C34.8469 110.186 34.2694 108.5 34.3383 106.777V107.295C34.243 109.053 34.8221 110.781 35.9572 112.125L36.1983 111.883L35.9572 111.504Z" fill="black"/>
<path opacity="0.12" d="M110.287 73.485L93.0645 83.2485L93.3745 83.559L110.252 73.968C111.212 73.5165 112.036 72.8194 112.64 71.9472C113.245 71.0749 113.609 70.0583 113.697 69V69C113.512 69.9601 113.108 70.8645 112.516 71.6424C111.925 72.4204 111.162 73.051 110.287 73.485V73.485Z" fill="black"/>
<path opacity="0.25" d="M43.0887 26.2887L110.29 64.5147C111.173 64.9424 111.944 65.5705 112.542 66.3491C113.14 67.1277 113.548 68.0353 113.734 68.9997V68.9997C113.643 67.9383 113.277 66.9189 112.673 66.0418C112.069 65.1648 111.248 64.4602 110.29 63.9972L43.0887 25.7712C38.301 23.0457 34.3398 25.3227 34.3398 30.8427V31.3602C34.3398 25.8402 38.301 23.5632 43.0887 26.2887Z" fill="white"/>
</g>
<defs>
<linearGradient id="paint0_linear_2239_3872" x1="75.0861" y1="30.0493" x2="17.1951" y2="87.847" gradientUnits="userSpaceOnUse">
<stop stop-color="#00A0FF"/>
<stop offset="0.01" stop-color="#00A1FF"/>
<stop offset="0.26" stop-color="#00BEFF"/>
<stop offset="0.51" stop-color="#00D2FF"/>
<stop offset="0.76" stop-color="#00DFFF"/>
<stop offset="1" stop-color="#00E3FF"/>
</linearGradient>
<linearGradient id="paint1_linear_2239_3872" x1="116.559" y1="68.9999" x2="33.2036" y2="68.9999" gradientUnits="userSpaceOnUse">
<stop stop-color="#FFE000"/>
<stop offset="0.41" stop-color="#FFBD00"/>
<stop offset="0.78" stop-color="#FFA500"/>
<stop offset="1" stop-color="#FF9C00"/>
</linearGradient>
<linearGradient id="paint2_linear_2239_3872" x1="85.5206" y1="76.9005" x2="6.99872" y2="155.296" gradientUnits="userSpaceOnUse">
<stop stop-color="#FF3A44"/>
<stop offset="1" stop-color="#C31162"/>
</linearGradient>
<linearGradient id="paint3_linear_2239_3872" x1="25.1395" y1="0.58692" x2="60.1915" y2="35.6169" gradientUnits="userSpaceOnUse">
<stop stop-color="#32A071"/>
<stop offset="0.07" stop-color="#2DA771"/>
<stop offset="0.48" stop-color="#15CF74"/>
<stop offset="0.8" stop-color="#06E775"/>
<stop offset="1" stop-color="#00F076"/>
</linearGradient>
<clipPath id="clip0_2239_3872">
<rect width="465" height="138" fill="white"/>
</clipPath>
</defs>
</svg>
