<svg width="394" height="394" viewBox="0 0 394 394" fill="none" xmlns="http://www.w3.org/2000/svg">
<path d="M308.746 293.153C305.486 293.153 302.848 295.794 302.848 299.051V302.116C302.848 305.373 305.486 308.014 308.746 308.014C312.007 308.014 314.645 305.373 314.645 302.116V299.051C314.645 295.794 312.007 293.153 308.746 293.153Z" fill="#C4C4C4"/>
<path d="M114.745 385.758H279.253C298.77 385.758 314.645 369.883 314.645 350.367V329.074C314.645 325.817 312.007 323.175 308.746 323.175C305.486 323.175 302.848 325.817 302.848 329.074V350.367C302.848 363.377 292.266 373.961 279.254 373.961H114.745C101.732 373.961 91.1508 363.376 91.1508 350.367V43.6425C91.1508 30.6328 101.733 20.0486 114.745 20.0486H136.91V34.2134C136.91 43.9711 144.848 51.9088 154.606 51.9088H239.374C249.132 51.9088 257.069 43.9711 257.069 34.2134V20.0486H279.253C292.265 20.0486 302.847 30.6335 302.847 43.6425V272.093C302.847 275.351 305.484 277.992 308.745 277.992C312.005 277.992 314.643 275.351 314.643 272.093V43.6425C314.643 24.1264 298.768 8.25096 279.252 8.25096C279.845 8.25019 240.822 8.22941 114.743 8.25096C95.227 8.25096 79.3516 24.1264 79.3516 43.6425V350.367C79.3539 369.883 95.2285 385.758 114.745 385.758V385.758ZM245.273 34.2126C245.273 37.4647 242.629 40.1111 239.375 40.1111H154.606C151.352 40.1111 148.708 37.4639 148.708 34.2126V20.0486H245.273V34.2126Z" fill="#C4C4C4"/>
<path d="M150.193 356.243H243.787C247.047 356.243 249.685 353.602 249.685 350.345C249.685 347.087 247.047 344.446 243.787 344.446H150.193C146.933 344.446 144.295 347.087 144.295 350.345C144.295 353.602 146.933 356.243 150.193 356.243Z" fill="#C4C4C4"/>
<path d="M245.839 151.006V94.2468C245.839 90.2337 241.913 87.4165 238.16 88.6247L178.524 107.524C176.07 108.299 174.406 110.575 174.406 113.147V162.432C172.185 161.518 169.762 160.998 167.217 160.998C156.699 160.998 148.145 169.517 148.145 179.986C148.145 190.502 156.699 199.056 167.217 199.056C177.683 199.056 186.202 190.502 186.202 179.986V117.464L234.042 102.303V133.454C231.821 132.542 229.399 132.02 226.853 132.02C216.335 132.02 207.781 140.536 207.781 151.006C207.781 161.522 216.335 170.078 226.853 170.078C237.319 170.078 245.839 161.522 245.839 151.006V151.006ZM167.216 187.259C163.137 187.259 159.941 184.064 159.941 179.986C159.941 176.02 163.207 172.794 167.216 172.794C171.179 172.794 174.405 176.02 174.405 179.986C174.405 183.995 171.179 187.259 167.216 187.259ZM219.577 151.006C219.577 147.043 222.843 143.817 226.852 143.817C230.815 143.817 234.041 147.043 234.041 151.006C234.041 155.018 230.815 158.281 226.852 158.281C222.774 158.281 219.577 155.084 219.577 151.006Z" fill="#C4C4C4"/>
<path d="M120.562 220.034C118.062 220.78 116.352 223.079 116.352 225.688V283.956C116.352 287.214 118.99 289.855 122.25 289.855C125.511 289.855 128.148 287.214 128.148 283.956V245.469L155.452 287.188C156.564 288.882 158.436 289.855 160.389 289.855C160.947 289.855 161.518 289.775 162.076 289.611C164.577 288.865 166.287 286.566 166.287 283.957V225.688C166.287 222.431 163.649 219.79 160.389 219.79C157.128 219.79 154.49 222.431 154.49 225.688V264.172L127.187 222.456C125.758 220.279 123.068 219.294 120.562 220.034Z" fill="#C4C4C4"/>
<path d="M256.922 283.956V231.586H271.731C274.992 231.586 277.63 228.945 277.63 225.688C277.63 222.431 274.992 219.79 271.731 219.79H230.314C227.054 219.79 224.416 222.431 224.416 225.688C224.416 228.945 227.054 231.586 230.314 231.586H245.124V283.956C245.124 287.214 247.762 289.855 251.023 289.855C254.283 289.855 256.922 287.214 256.922 283.956V283.956Z" fill="#C4C4C4"/>
<path d="M212.957 231.586C216.217 231.586 218.855 228.945 218.855 225.688C218.855 222.431 216.217 219.79 212.957 219.79H183.787C180.527 219.79 177.889 222.431 177.889 225.688V283.956C177.889 287.214 180.527 289.855 183.787 289.855C187.048 289.855 189.686 287.214 189.686 283.956V260.722H212.957C216.217 260.722 218.855 258.081 218.855 254.823C218.855 251.566 216.217 248.925 212.957 248.925H189.686V231.586H212.957Z" fill="#C4C4C4"/>
</svg>
