<svg width="394" height="394" viewBox="0 0 394 394" fill="none" xmlns="http://www.w3.org/2000/svg">
<path d="M313.969 43.0938C313.959 33.3003 310.064 23.9108 303.139 16.9858C296.214 10.0608 286.825 6.16603 277.031 6.15625H116.969C107.175 6.16603 97.7858 10.0608 90.8608 16.9858C83.9358 23.9108 80.041 33.3003 80.0312 43.0938V172.375H61.5625V184.688H80.0312V350.906C80.041 360.7 83.9358 370.089 90.8608 377.014C97.7858 383.939 107.175 387.834 116.969 387.844H277.031C286.825 387.834 296.214 383.939 303.139 377.014C310.064 370.089 313.959 360.7 313.969 350.906V184.688H332.438V172.375H313.969V43.0938ZM92.3438 43.0938C92.3438 36.5628 94.9382 30.2993 99.5563 25.6812C104.174 21.0632 110.438 18.4688 116.969 18.4688H277.031C283.562 18.4688 289.826 21.0632 294.444 25.6812C299.062 30.2993 301.656 36.5628 301.656 43.0938V172.375H289.344V49.25C289.344 44.3518 287.398 39.6542 283.934 36.1906C280.471 32.7271 275.773 30.7812 270.875 30.7812H252.406C250.774 30.7816 249.208 31.4304 248.054 32.585L237.545 43.0938H162.611L152.102 32.585C150.948 31.4304 149.383 30.7816 147.75 30.7812H123.125C118.227 30.7812 113.529 32.7271 110.066 36.1906C106.602 39.6542 104.656 44.3518 104.656 49.25V172.375H92.3438V43.0938ZM227.781 350.906H166.219V344.75C166.219 343.117 166.867 341.551 168.022 340.397C169.176 339.242 170.742 338.594 172.375 338.594H221.625C223.258 338.594 224.824 339.242 225.978 340.397C227.133 341.551 227.781 343.117 227.781 344.75V350.906ZM221.625 326.281H172.375C167.477 326.281 162.779 328.227 159.316 331.691C155.852 335.154 153.906 339.852 153.906 344.75V350.906H129.281C126.016 350.906 122.884 349.609 120.575 347.3C118.266 344.991 116.969 341.859 116.969 338.594V184.688H129.281V240.094C129.281 241.726 129.93 243.292 131.084 244.447C132.239 245.601 133.805 246.25 135.438 246.25H258.562C260.195 246.25 261.761 245.601 262.916 244.447C264.07 243.292 264.719 241.726 264.719 240.094V184.688H277.031V338.594C277.031 341.859 275.734 344.991 273.425 347.3C271.116 349.609 267.984 350.906 264.719 350.906H240.094V344.75C240.094 339.852 238.148 335.154 234.684 331.691C231.221 328.227 226.523 326.281 221.625 326.281V326.281ZM252.406 172.375H141.594V123.125H252.406V172.375ZM252.406 184.688V233.938H141.594V184.688H252.406ZM264.719 172.375V116.969C264.719 115.336 264.07 113.77 262.916 112.616C261.761 111.461 260.195 110.812 258.562 110.812H135.438C133.805 110.812 132.239 111.461 131.084 112.616C129.93 113.77 129.281 115.336 129.281 116.969V172.375H116.969V49.25C116.969 47.6173 117.617 46.0514 118.772 44.8969C119.926 43.7424 121.492 43.0937 123.125 43.0938H145.201L155.71 53.6025C156.864 54.7571 158.43 55.4059 160.062 55.4062H240.094C241.726 55.4059 243.292 54.7571 244.446 53.6025L254.955 43.0938H270.875C272.508 43.0937 274.074 43.7424 275.228 44.8969C276.383 46.0514 277.031 47.6173 277.031 49.25V172.375H264.719ZM301.656 350.906C301.656 357.437 299.062 363.701 294.444 368.319C289.826 372.937 283.562 375.531 277.031 375.531H116.969C110.438 375.531 104.174 372.937 99.5563 368.319C94.9382 363.701 92.3438 357.437 92.3438 350.906V184.688H104.656V338.594C104.656 345.125 107.251 351.388 111.869 356.006C116.487 360.624 122.75 363.219 129.281 363.219H264.719C271.25 363.219 277.513 360.624 282.131 356.006C286.749 351.388 289.344 345.125 289.344 338.594V184.688H301.656V350.906Z" fill="#C4C4C4"/>
<path d="M166.219 289.344H178.531V301.656H166.219V289.344Z" fill="#C4C4C4"/>
<path d="M190.844 289.344H203.156V301.656H190.844V289.344Z" fill="#C4C4C4"/>
<path d="M215.469 289.344H227.781V301.656H215.469V289.344Z" fill="#C4C4C4"/>
<path d="M153.906 166.219H178.531C180.164 166.219 181.73 165.57 182.884 164.416C184.039 163.261 184.688 161.695 184.688 160.062V135.438C184.688 133.805 184.039 132.239 182.884 131.084C181.73 129.93 180.164 129.281 178.531 129.281H153.906C152.274 129.281 150.708 129.93 149.553 131.084C148.399 132.239 147.75 133.805 147.75 135.438V160.062C147.75 161.695 148.399 163.261 149.553 164.416C150.708 165.57 152.274 166.219 153.906 166.219ZM160.062 141.594H172.375V153.906H160.062V141.594Z" fill="#C4C4C4"/>
<path d="M215.469 227.781H240.094C241.726 227.781 243.292 227.133 244.447 225.978C245.601 224.824 246.25 223.258 246.25 221.625V197C246.25 195.367 245.601 193.801 244.447 192.647C243.292 191.492 241.726 190.844 240.094 190.844H215.469C213.836 190.844 212.27 191.492 211.116 192.647C209.961 193.801 209.312 195.367 209.312 197V221.625C209.312 223.258 209.961 224.824 211.116 225.978C212.27 227.133 213.836 227.781 215.469 227.781ZM221.625 203.156H233.938V215.469H221.625V203.156Z" fill="#C4C4C4"/>
<path d="M190.844 129.275H203.156V166.219H190.844V129.275Z" fill="#C4C4C4"/>
<path d="M233.938 166.219H246.25V135.438C246.25 133.805 245.601 132.239 244.447 131.084C243.292 129.93 241.726 129.281 240.094 129.281H209.312V141.594H233.938V166.219Z" fill="#C4C4C4"/>
<path d="M209.312 153.906H227.781V166.219H209.312V153.906Z" fill="#C4C4C4"/>
<path d="M147.75 190.844H184.681V203.156H147.75V190.844Z" fill="#C4C4C4"/>
<path d="M190.844 190.844H203.156V203.156H190.844V190.844Z" fill="#C4C4C4"/>
<path d="M172.375 209.312H203.156V221.625H172.375V209.312Z" fill="#C4C4C4"/>
<path d="M147.75 209.312H160.062V221.625H147.75V209.312Z" fill="#C4C4C4"/>
<path d="M344.75 172.375H357.062V184.688H344.75V172.375Z" fill="#C4C4C4"/>
<path d="M36.9375 172.375H49.25V184.688H36.9375V172.375Z" fill="#C4C4C4"/>
</svg>
