<svg width="394" height="394" viewBox="0 0 394 394" fill="none" xmlns="http://www.w3.org/2000/svg">
<g clip-path="url(#clip0_2237_3698)">
<path d="M271.846 329.584C225.508 364.374 161.315 362.676 116.881 325.484C72.4477 288.292 59.4751 225.4 85.5657 173.661C86.7082 171.557 86.6159 168.999 85.3241 166.983C84.0323 164.968 81.7464 163.815 79.3583 163.975C76.9701 164.135 74.8581 165.582 73.8464 167.751C64.1083 186.977 59.0642 208.236 59.1265 229.788C59.1265 282.01 88.6316 329.751 135.341 353.105C182.05 376.46 237.946 371.42 279.724 340.086C281.601 338.679 282.584 336.377 282.303 334.049C282.022 331.72 280.521 329.718 278.364 328.796C276.207 327.877 273.722 328.176 271.846 329.584V329.584Z" fill="#C4C4C4"/>
<path d="M197 91.9161C167.155 91.8322 138.102 101.516 114.276 119.491C111.375 121.667 110.787 125.781 112.962 128.683C115.138 131.584 119.253 132.171 122.154 129.996C168.557 95.2467 232.783 97.0348 277.181 134.312C321.579 171.59 334.454 234.536 308.258 286.252C307.183 288.345 307.31 290.853 308.591 292.826C309.871 294.8 312.11 295.937 314.459 295.807C316.808 295.678 318.908 294.303 319.964 292.201C329.821 272.877 334.932 251.482 334.874 229.79C334.791 153.678 273.111 91.9992 197 91.9161V91.9161Z" fill="#C4C4C4"/>
<path d="M278.332 184.488L238.224 178.429C235.938 178.032 233.997 176.527 233.044 174.411L214.963 136.332C211.783 129.262 204.752 124.715 197 124.715C189.248 124.715 182.217 129.262 179.037 136.332L160.956 174.411C160.003 176.527 158.062 178.032 155.776 178.429L115.668 184.488C108.142 185.677 101.933 191.014 99.6284 198.276C97.0525 205.835 98.9606 214.2 104.559 219.895L133.316 249.053C135.109 250.908 135.907 253.51 135.462 256.052L128.634 297.414C127.237 305.346 130.521 313.376 137.077 318.056C143.146 322.406 151.174 322.881 157.712 319.277L193.953 299.469C195.847 298.412 198.153 298.412 200.046 299.469L236.287 319.277C242.825 322.886 250.856 322.41 256.922 318.056C263.478 313.376 266.762 305.346 265.365 297.414L258.537 256.052C258.092 253.515 258.882 250.919 260.664 249.06L289.441 219.902C295.04 214.204 296.947 205.837 294.372 198.276C292.067 191.014 285.858 185.677 278.332 184.488V184.488ZM280.092 210.651L251.322 239.809C246.58 244.666 244.445 251.498 245.577 258.191L252.406 299.554C252.963 302.529 251.766 305.561 249.327 307.354C247.356 308.806 244.715 308.966 242.584 307.761L206.343 287.953C200.524 284.757 193.476 284.757 187.657 287.953L151.416 307.761C149.286 308.969 146.643 308.81 144.674 307.354C142.234 305.561 141.037 302.529 141.594 299.554L148.423 258.191C149.545 251.512 147.414 244.697 142.685 239.848L113.908 210.677C111.796 208.488 111.093 205.299 112.089 202.425C112.846 199.861 114.995 197.95 117.63 197.501L157.738 191.441C164.354 190.407 170.017 186.142 172.839 180.07L190.92 141.991C191.941 139.518 194.351 137.904 197.026 137.904C199.701 137.904 202.112 139.518 203.132 141.991L221.213 180.07C224.035 186.142 229.699 190.406 236.314 191.441L276.422 197.501C279.057 197.95 281.207 199.861 281.963 202.425C282.937 205.305 282.215 208.488 280.092 210.664V210.651Z" fill="#C4C4C4"/>
<path d="M203.566 45.9576V6.56515C203.566 2.93905 200.626 0 197.001 0C193.375 0 190.436 2.93982 190.436 6.56515V45.9576C190.436 49.5837 193.375 52.5228 197.001 52.5228C200.626 52.5235 203.566 49.5837 203.566 45.9576V45.9576Z" fill="#C4C4C4"/>
<path d="M249.524 52.5235V6.56515C249.524 2.93905 246.585 0 242.959 0C239.333 0 236.394 2.93982 236.394 6.56515V52.5228C236.394 56.1489 239.333 59.0879 242.959 59.0879C246.585 59.0879 249.524 56.1496 249.524 52.5235Z" fill="#C4C4C4"/>
<path d="M282.352 72.2199C282.352 75.846 285.291 78.785 288.917 78.785C292.543 78.785 295.482 75.8452 295.482 72.2199V45.9577C295.482 42.3316 292.543 39.3926 288.917 39.3926C285.291 39.3926 282.352 42.3324 282.352 45.9577V72.2199Z" fill="#C4C4C4"/>
<path d="M288.917 26.2614C292.543 26.2614 295.482 23.3216 295.482 19.6962V6.56515C295.482 2.93905 292.543 0 288.917 0C285.291 0 282.352 2.93982 282.352 6.56515V19.6962C282.352 23.3223 285.291 26.2614 288.917 26.2614Z" fill="#C4C4C4"/>
<path d="M341.44 39.3923C341.44 35.7662 338.501 32.8271 334.875 32.8271C331.249 32.8271 328.31 35.767 328.31 39.3923V131.42C297.351 90.0278 248.689 65.656 197 65.656C145.312 65.656 96.6496 90.0278 65.6919 131.42V39.3923C65.6919 35.7662 62.7521 32.8271 59.1268 32.8271C55.5014 32.8271 52.5616 35.767 52.5616 39.3923V151.897C20.0559 212.121 28.3291 286.193 73.3196 337.762C118.31 389.33 190.576 407.573 254.652 383.535C318.728 359.497 361.165 298.225 361.136 229.789C361.167 202.589 354.396 175.813 341.44 151.898V39.3923ZM197 380.793C113.603 380.793 45.9957 313.186 45.9957 229.789C45.9957 146.391 113.603 78.7848 197 78.7848C280.398 78.7848 348.005 146.392 348.005 229.789C347.911 313.148 280.359 380.7 197 380.793Z" fill="#C4C4C4"/>
<path d="M157.608 52.5235V6.56515C157.608 2.93905 154.668 0 151.043 0C147.417 0 144.478 2.93982 144.478 6.56515V52.5228C144.478 56.1489 147.417 59.0879 151.043 59.0879C154.669 59.0887 157.608 56.1496 157.608 52.5235Z" fill="#C4C4C4"/>
<path d="M98.5195 72.2199C98.5195 75.846 101.459 78.785 105.085 78.785C108.711 78.785 111.65 75.8452 111.65 72.2199V45.9577C111.65 42.3316 108.71 39.3926 105.085 39.3926C101.459 39.3926 98.5195 42.3324 98.5195 45.9577V72.2199Z" fill="#C4C4C4"/>
<path d="M105.085 26.2614C108.711 26.2614 111.65 23.3216 111.65 19.6962V6.56515C111.65 2.93905 108.71 0 105.085 0C101.459 0 98.5195 2.93982 98.5195 6.56515V19.6962C98.5188 23.3223 101.459 26.2614 105.085 26.2614Z" fill="#C4C4C4"/>
</g>
<defs>
<clipPath id="clip0_2237_3698">
<rect width="394" height="394" fill="white"/>
</clipPath>
</defs>
</svg>
