<svg width="394" height="394" viewBox="0 0 394 394" fill="none" xmlns="http://www.w3.org/2000/svg">
<g clip-path="url(#clip0_2237_3818)">
<path d="M141.183 216.7C152.941 217.521 163.178 208.746 164.166 197V163.51L210.133 158.395V179.27C207.009 177.977 203.663 177.308 200.283 177.3C188.524 176.48 178.287 185.255 177.299 197C178.287 208.746 188.524 217.521 200.283 216.7C212.041 217.521 222.278 208.746 223.266 197V137.9C223.265 132.298 220.878 126.961 216.703 123.225C212.529 119.489 206.961 117.707 201.392 118.325L168.559 121.969C158.581 123.077 151.031 131.512 151.033 141.551V179.27C147.909 177.977 144.563 177.308 141.183 177.3C129.424 176.48 119.187 185.255 118.199 197C119.187 208.746 129.424 217.521 141.183 216.7ZM200.283 203.567C195.029 203.567 190.433 200.494 190.433 197C190.433 193.507 195.029 190.434 200.283 190.434C205.536 190.434 210.133 193.507 210.133 197C210.133 200.494 205.536 203.567 200.283 203.567ZM170.01 135.031L202.844 131.379C204.701 131.142 206.569 131.738 207.946 133.008C209.346 134.247 210.143 136.03 210.133 137.9V145.156L164.166 150.265V141.551C164.169 138.206 166.686 135.398 170.01 135.031V135.031ZM141.183 190.434C146.436 190.434 151.033 193.507 151.033 197C151.033 200.494 146.436 203.567 141.183 203.567C135.929 203.567 131.333 200.494 131.333 197C131.333 193.507 135.929 190.434 141.183 190.434Z" fill="#C4C4C4"/>
<path d="M302.065 236.4C265.798 236.4 236.398 265.8 236.398 302.067C236.398 338.333 265.798 367.733 302.065 367.733C338.332 367.733 367.732 338.333 367.732 302.067C367.692 265.816 338.315 236.44 302.065 236.4ZM302.065 354.6C273.052 354.6 249.532 331.08 249.532 302.067C249.532 273.053 273.052 249.533 302.065 249.533C331.078 249.533 354.598 273.053 354.598 302.067C354.566 331.066 331.065 354.567 302.065 354.6Z" fill="#C4C4C4"/>
<path d="M323.079 212.655L348.624 90.8104C359.058 87.7914 366.543 78.642 367.435 67.8169C368.327 56.9917 362.441 46.7404 352.642 42.054C342.843 37.3675 331.168 39.22 323.301 46.7093C315.434 54.1986 313.01 65.7685 317.209 75.7859L258.365 144.079C258.227 144.336 257.928 144.459 257.649 144.375C257.336 144.328 257.079 144.102 256.992 143.797L206.35 39.643C208.801 35.6096 210.108 30.9859 210.133 26.2667C210.133 11.76 198.373 0 183.866 0C169.359 0 157.599 11.76 157.599 26.2667C157.624 30.9859 158.931 35.6096 161.382 39.643L110.661 143.954C110.556 144.203 110.325 144.374 110.057 144.401C109.61 144.513 109.4 144.197 109.19 143.928L50.497 75.7859C54.7479 65.7327 52.3387 54.0983 44.4449 46.56C36.5512 39.0218 24.8181 37.1508 14.9714 41.8601C5.12459 46.5694 -0.78368 56.8776 0.129719 67.7542C1.04312 78.6309 8.58782 87.8093 19.0821 90.8104L51.3507 244.569C44.106 247.668 39.4051 254.787 39.3994 262.667V283.555C36.6567 284.486 34.168 286.041 32.1301 288.099C28.3522 291.761 26.2339 296.806 26.266 302.067C26.266 312.947 35.086 321.767 45.966 321.767H212.313C222.018 366.25 262.821 396.929 308.25 393.9C353.679 390.871 390.048 355.045 393.761 309.667C397.473 264.289 367.412 223.028 323.079 212.655ZM341.466 52.5333C348.719 52.5333 354.599 58.4133 354.599 65.6667C354.599 72.92 348.719 78.8 341.466 78.8C334.213 78.8 328.333 72.92 328.333 65.6667C328.333 58.4133 334.213 52.5333 341.466 52.5333ZM183.866 13.1333C191.119 13.1333 196.999 19.0133 196.999 26.2667C196.999 33.52 191.119 39.4 183.866 39.4C176.613 39.4 170.733 33.52 170.733 26.2667C170.733 19.0133 176.613 13.1333 183.866 13.1333ZM109.925 157.547C110.496 157.544 111.066 157.509 111.633 157.442C116.38 156.88 120.498 153.898 122.514 149.562L171.337 49.2106C179.102 53.6413 188.63 53.6413 196.395 49.2106L245.146 149.444C247.15 153.84 251.302 156.873 256.099 157.442C256.673 157.51 257.249 157.545 257.826 157.547C261.97 157.573 265.9 155.715 268.51 152.498L325.463 86.3517C328.335 88.5893 331.643 90.2019 335.175 91.0862L310.13 210.54C307.47 210.311 304.791 210.133 302.066 210.133C274.924 210.136 249.177 222.158 231.75 242.967H64.4315L32.5569 91.0862C36.0888 90.2019 39.3969 88.5893 42.269 86.3517L99.0838 152.347C101.715 155.644 105.707 157.559 109.925 157.547ZM212.313 282.367H52.5327V262.667C52.5327 259.04 55.4727 256.1 59.0994 256.1H222.57C217.811 264.271 214.351 273.133 212.313 282.367ZM13.1327 65.6667C13.1327 58.4133 19.0127 52.5333 26.266 52.5333C33.5194 52.5333 39.3994 58.4133 39.3994 65.6667C39.3994 72.92 33.5194 78.8 26.266 78.8C22.7829 78.8 19.4423 77.4163 16.9794 74.9533C14.5164 72.4904 13.1327 69.1498 13.1327 65.6667V65.6667ZM45.966 308.633C42.3394 308.633 39.3994 305.693 39.3994 302.067C39.3959 300.295 40.1255 298.6 41.4153 297.385C42.6135 296.165 44.2562 295.484 45.966 295.5H210.468C210.31 297.68 210.133 299.847 210.133 302.067C210.133 304.286 210.31 306.453 210.468 308.633H45.966ZM302.066 380.867C258.546 380.867 223.266 345.587 223.266 302.067C223.266 258.547 258.546 223.267 302.066 223.267C345.586 223.267 380.866 258.547 380.866 302.067C380.819 345.567 345.567 380.82 302.066 380.867Z" fill="#C4C4C4"/>
<path d="M302.066 295.5C298.88 295.497 296.156 293.207 295.605 290.069C295.054 286.931 296.834 283.85 299.829 282.762C302.823 281.673 306.167 282.891 307.759 285.65C309.627 288.668 313.555 289.657 316.629 287.881C319.702 286.105 320.808 282.209 319.126 279.083C316.749 275.086 313.031 272.061 308.633 270.547V269.233C308.633 265.607 305.693 262.667 302.066 262.667C298.44 262.667 295.5 265.607 295.5 269.233V270.441C286.46 273.625 281.035 282.865 282.659 292.31C284.283 301.755 292.483 308.651 302.066 308.633C305.252 308.636 307.976 310.926 308.527 314.064C309.079 317.202 307.298 320.283 304.304 321.371C301.31 322.46 297.966 321.242 296.373 318.483C294.505 315.465 290.577 314.476 287.504 316.252C284.43 318.028 283.324 321.924 285.006 325.05C287.387 329.05 291.11 332.075 295.513 333.586V334.9C295.513 338.526 298.453 341.466 302.079 341.466C305.706 341.466 308.646 338.526 308.646 334.9V333.692C317.688 330.507 323.113 321.264 321.485 311.817C319.858 302.37 311.652 295.475 302.066 295.5V295.5Z" fill="#C4C4C4"/>
</g>
<defs>
<clipPath id="clip0_2237_3818">
<rect width="394" height="394" fill="white"/>
</clipPath>
</defs>
</svg>
