<svg width="370" height="369" viewBox="0 0 370 369" fill="none" xmlns="http://www.w3.org/2000/svg">
<path d="M252.834 0H117.167C100.147 0.0199875 86.354 13.776 86.334 30.75V338.25C86.354 355.224 100.147 368.98 117.167 369H252.834C269.854 368.98 283.647 355.224 283.667 338.25V30.75C283.647 13.776 269.854 0.0199875 252.834 0ZM271.334 338.25C271.334 348.44 263.051 356.7 252.834 356.7H117.167C106.95 356.7 98.6673 348.44 98.6673 338.25V319.8H271.334V338.25ZM271.334 307.5H98.6673V67.65H271.334V307.5ZM271.334 55.35H98.6673V30.75C98.6673 20.5602 106.95 12.3 117.167 12.3H252.834C263.051 12.3 271.334 20.5602 271.334 30.75V55.35Z" fill="#C4C4C4"/>
<path d="M228.167 30.75H141.834V43.05H228.167V30.75Z" fill="#C4C4C4"/>
<path d="M197.333 332.1H172.666V344.4H197.333V332.1Z" fill="#C4C4C4"/>
<path d="M135.667 79.9502H111V92.2502H135.667V79.9502Z" fill="#C4C4C4"/>
<path d="M172.667 79.9502H148V92.2502H172.667V79.9502Z" fill="#C4C4C4"/>
<path d="M209.667 104.55H197.334V116.85H209.667V104.55Z" fill="#C4C4C4"/>
<path d="M234.333 92.25H222V116.85H234.333V92.25Z" fill="#C4C4C4"/>
<path d="M258.999 79.9502H246.666V116.85H258.999V79.9502Z" fill="#C4C4C4"/>
<path d="M304.597 149.402L295.871 158.098C310.469 172.689 310.469 196.311 295.871 210.902L304.597 219.598C323.993 200.197 323.993 168.803 304.597 149.402Z" fill="#C4C4C4"/>
<path d="M323.097 130.952L314.371 139.648C339.175 164.434 339.175 204.567 314.371 229.352L323.097 238.048C352.698 208.453 352.698 160.547 323.097 130.952Z" fill="#C4C4C4"/>
<path d="M74.1239 158.098L65.4042 149.402C46.0085 168.803 46.0085 200.197 65.4042 219.598L74.1239 210.902C59.5328 196.308 59.5328 172.692 74.1239 158.098Z" fill="#C4C4C4"/>
<path d="M55.624 139.648L46.9043 130.952C17.3027 160.547 17.3027 208.453 46.9043 238.048L55.624 229.352C30.827 204.564 30.827 164.437 55.624 139.648Z" fill="#C4C4C4"/>
<path d="M200.243 234.426C198.237 233.355 195.803 233.473 193.91 234.733L156.91 259.333C154.077 261.218 153.311 265.036 155.201 267.862C155.652 268.537 156.233 269.116 156.91 269.567L193.91 294.167C196.743 296.052 200.573 295.29 202.463 292.464C203.139 291.453 203.499 290.266 203.499 289.05V239.85C203.5 237.582 202.249 235.497 200.243 234.426ZM191.166 277.562L171.433 264.45L191.166 251.338V277.562Z" fill="#C4C4C4"/>
<path d="M219.342 130.245C217.681 129.089 215.555 128.827 213.662 129.544L164.329 147.994C161.924 148.895 160.333 151.189 160.333 153.75V191.782C158.358 191.053 156.272 190.671 154.166 190.65C143.949 190.65 135.666 198.91 135.666 209.1C135.666 219.29 143.949 227.55 154.166 227.55C164.383 227.55 172.666 219.29 172.666 209.1V158.012L209.666 144.175V173.332C207.691 172.603 205.605 172.221 203.499 172.2C193.282 172.2 184.999 180.46 184.999 190.65C184.999 200.84 193.282 209.1 203.499 209.1C213.717 209.1 221.999 200.84 221.999 190.65V135.3C221.999 133.282 221.006 131.393 219.342 130.245ZM154.166 215.25C150.76 215.25 147.999 212.496 147.999 209.1C147.999 205.704 150.76 202.95 154.166 202.95C157.572 202.95 160.333 205.704 160.333 209.1C160.333 212.496 157.572 215.25 154.166 215.25ZM203.499 196.8C200.094 196.8 197.333 194.046 197.333 190.65C197.333 187.254 200.094 184.5 203.499 184.5C206.905 184.5 209.666 187.254 209.666 190.65C209.666 194.046 206.905 196.8 203.499 196.8Z" fill="#C4C4C4"/>
</svg>
