<svg width="394" height="394" viewBox="0 0 394 394" fill="none" xmlns="http://www.w3.org/2000/svg">
<g clip-path="url(#clip0_2237_3825)">
<path d="M393.496 78.2682C392.561 75.0493 390.425 72.3883 387.484 70.7753C380.942 67.1847 375.39 77.3063 381.932 80.8946C382.435 81.2301 382.569 81.6741 382.332 82.2258L346.315 147.643L223.25 80.1327L225.668 67.2225C225.877 66.1105 225.915 65.0078 225.829 63.9304C225.852 63.8904 225.879 63.8535 225.901 63.8127L254.394 12.0623C254.658 11.5829 255.269 11.4105 255.757 11.6783L286.779 28.6963C287.197 28.9256 287.392 29.4189 287.243 29.8691C281.762 46.383 288.898 64.466 304.21 72.8654C309.72 75.888 315.722 77.3455 321.662 77.3455C332.225 77.3455 342.592 72.7368 349.647 64.119C349.952 63.745 350.483 63.6419 350.909 63.875L360.425 69.0955C366.968 72.6822 372.519 62.5653 365.977 58.9763L356.461 53.7558C351.16 50.8478 344.539 52.1337 340.714 56.8085C333.213 65.9727 320.195 68.4675 309.762 62.7461C299.336 57.0263 294.473 44.7293 298.199 33.5051C300.104 27.7652 297.637 21.4867 292.332 18.5771L261.31 1.55912C255.246 -1.76753 247.61 0.450236 244.282 6.4956L218.418 53.4726C217.547 53.0856 216.624 52.7816 215.647 52.5977L180.859 46.0483C174.909 44.9294 169.02 48.2122 166.846 53.8512C162.59 64.8839 151.016 71.3002 139.319 69.0916C127.621 66.8908 119.15 56.7031 119.177 44.8686C119.192 38.8271 114.89 33.6305 108.949 32.5124L74.1616 25.9637C70.8734 25.342 67.536 26.0399 64.7719 27.9229C62.0016 29.8106 60.1363 32.6632 59.5191 35.956L44.7135 114.989L36.5258 158.695C35.1514 166.03 46.4972 168.155 47.8716 160.82L54.9951 122.792L198.454 149.798L155.018 381.668C154.661 383.594 144.644 380.708 143.617 380.515L184.032 164.774C184.565 161.928 182.253 158.572 179.428 158.04L69.7553 137.395C66.2347 137.068 63.9877 138.605 63.0143 142.004L22.6005 357.735C21.1438 357.461 11.2093 356.52 11.5609 354.654L42.331 190.399C43.7054 183.064 32.3611 180.941 30.9852 188.274L0.215095 352.527C-1.05616 359.312 3.43862 365.873 10.235 367.152L26.1418 370.147L45.0221 373.701C50.9651 374.822 56.8619 371.538 59.0366 365.899C63.2928 354.867 74.8703 348.458 86.5624 350.658C98.2615 352.86 106.733 363.048 106.706 374.881C106.692 380.923 110.993 386.119 116.934 387.237L135.814 390.791L151.722 393.785C158.293 395.027 165.12 390.425 166.363 383.794L178.432 319.371C183.914 325.758 185.895 334.695 183.124 343.04C181.219 348.78 183.686 355.058 188.991 357.968L220.014 374.986C226.049 378.298 233.76 376.007 237.042 370.049L353.647 158.258L392.443 87.7925C394.056 84.863 394.431 81.4802 393.496 78.2682V78.2682ZM132.272 378.38L119.069 375.895C118.592 375.805 118.247 375.391 118.248 374.91C118.288 357.515 105.86 342.546 88.6978 339.316C86.437 338.889 84.1831 338.684 81.9522 338.684C67.2428 338.684 53.703 347.653 48.2671 361.746C48.0963 362.19 47.63 362.444 47.1583 362.359L33.9448 359.872L73.2959 149.808L171.624 168.318L132.272 378.38ZM57.1213 111.447L70.8642 38.0822C70.925 37.7582 71.1181 37.5666 71.2697 37.4627C71.4259 37.3558 71.6837 37.2426 72.0246 37.3073L106.812 43.8559C107.289 43.9459 107.633 44.3607 107.633 44.8417C107.593 62.2359 120.02 77.2055 137.182 80.4351C154.35 83.6695 171.353 74.2336 177.614 58.0051C177.785 57.5619 178.259 57.3087 178.722 57.3926L213.509 63.9412C214.056 64.0443 214.421 64.5638 214.32 65.0978L211.148 82.0296C211.147 82.035 211.146 82.0411 211.145 82.0465L201.845 131.692C201.842 131.705 201.84 131.717 201.838 131.729L200.578 138.453L57.1213 111.447ZM190.132 256.913L193.532 258.135C195.368 258.795 197.412 258.483 198.967 257.306L205.246 252.554L204.611 260.443C204.455 262.379 205.283 264.262 206.813 265.457L213.466 270.646L204.604 273.568C202.92 274.122 201.585 275.42 200.983 277.087L197.928 285.539L194.03 279.077C192.984 277.342 191.107 276.286 189.089 276.286C189.047 276.286 189.005 276.287 188.964 276.288L186.492 276.342L190.132 256.913ZM194.543 347.849C194.125 347.619 193.93 347.126 194.079 346.676C199.083 331.6 193.568 315.22 180.92 306.091L184.321 287.935L185.874 287.901L194.301 301.87C195.352 303.613 197.234 304.66 199.241 304.66C199.429 304.66 199.618 304.651 199.808 304.632C202.022 304.415 203.914 302.943 204.67 300.85L210.885 283.651L227.346 278.225C229.37 277.558 230.86 275.831 231.226 273.732C231.59 271.633 230.769 269.504 229.089 268.194L216.367 258.269L217.786 240.644C217.968 238.377 216.803 236.214 214.809 235.121C212.813 234.026 210.365 234.206 208.55 235.579L194.496 246.216L192.286 245.421L210.863 146.255L213.003 134.832L221.766 118.915L309.449 167.016L206.328 354.313L194.543 347.849ZM226.931 364.482C226.665 364.963 226.054 365.133 225.567 364.867L216.449 359.865L322.348 167.519C323.756 164.274 322.997 161.66 320.068 159.676L222.265 106.023C221.076 105.37 219.757 105.185 218.515 105.398L221.012 92.0711L340.747 157.754L226.931 364.482Z" fill="#C4C4C4"/>
<path d="M259.785 65.0556C256.991 63.5227 253.482 64.5454 251.949 67.3396C250.416 70.1345 251.438 73.6419 254.233 75.1756L329.051 116.219C329.932 116.702 330.883 116.931 331.822 116.931C333.861 116.931 335.837 115.849 336.887 113.935C338.42 111.14 337.398 107.633 334.603 106.099L259.785 65.0556Z" fill="#C4C4C4"/>
<path d="M238.978 147.654C236.184 146.119 232.676 147.134 231.138 149.926L201.963 202.916C200.426 205.708 201.442 209.218 204.235 210.756C205.118 211.242 206.073 211.473 207.013 211.473C209.049 211.473 211.023 210.394 212.074 208.484L241.249 155.494C242.787 152.701 241.77 149.191 238.978 147.654V147.654Z" fill="#C4C4C4"/>
<path d="M257.448 157.785C254.655 156.248 251.146 157.266 249.608 160.058L220.433 213.048C218.897 215.84 219.913 219.349 222.706 220.888C223.588 221.374 224.543 221.604 225.484 221.604C227.52 221.604 229.494 220.525 230.545 218.615L259.719 165.625C261.257 162.832 260.24 159.323 257.448 157.785V157.785Z" fill="#C4C4C4"/>
<path d="M275.916 167.917C273.124 166.38 269.615 167.398 268.077 170.19L238.902 223.18C237.365 225.972 238.382 229.481 241.174 231.02C242.057 231.506 243.012 231.736 243.952 231.736C245.989 231.736 247.962 230.657 249.014 228.747L278.188 175.757C279.726 172.964 278.709 169.455 275.916 167.917V167.917Z" fill="#C4C4C4"/>
<path d="M176.472 102.594L92.5747 86.8022C85.2435 85.4125 83.1057 96.766 90.4393 98.145L174.336 113.937C181.443 115.285 183.678 103.949 176.472 102.594Z" fill="#C4C4C4"/>
<path d="M126.939 289.352L111.781 283.917L107.669 266.744C107.14 264.531 105.358 262.836 103.123 262.416C100.886 261.996 98.6118 262.928 97.3143 264.798L87.2428 279.314L71.1398 278.886C68.9944 278.837 67.0213 279.952 65.9686 281.803C64.9159 283.655 64.969 285.938 66.1079 287.738L75.3845 302.415L69.2799 319.667C68.5381 321.763 69.0667 324.1 70.6396 325.673C72.2125 327.246 74.5503 327.773 76.645 327.034L91.9977 321.605L104.332 332.227C105.399 333.145 106.741 333.624 108.098 333.624C108.884 333.624 109.674 333.464 110.421 333.136C112.456 332.241 113.797 330.257 113.867 328.034L114.444 309.744L128.42 299.428C130.135 298.162 131.012 296.055 130.703 293.946C130.394 291.838 128.946 290.072 126.939 289.352V289.352ZM105.335 302.121C103.912 303.17 103.05 304.815 102.994 306.582L102.71 315.597L96.9935 310.675C95.93 309.759 94.5887 309.277 93.2266 309.277C92.581 309.277 91.9308 309.386 91.3036 309.607L84.1948 312.121L87.2005 303.626C87.7907 301.958 87.5837 300.112 86.6388 298.617L81.6423 290.713L90.0539 290.936C91.9985 290.985 93.84 290.055 94.9488 288.456L99.4467 281.974L101.283 289.641C101.737 291.535 103.114 293.073 104.948 293.729L112.861 296.567L105.335 302.121Z" fill="#C4C4C4"/>
<path d="M85.378 242.558C88.2352 243.09 91.5765 240.813 92.1136 237.948L103.247 178.517C104.621 171.181 93.2771 169.059 91.9012 176.391L80.7678 235.822C80.1806 238.955 82.2445 241.971 85.378 242.558V242.558Z" fill="#C4C4C4"/>
<path d="M106.089 246.456C108.946 246.988 112.287 244.712 112.825 241.846L123.959 182.415C125.333 175.08 113.988 172.957 112.613 180.29L101.479 239.721C100.892 242.854 102.955 245.869 106.089 246.456Z" fill="#C4C4C4"/>
<path d="M140.057 179.578C136.926 178.993 133.909 181.056 133.321 184.188L122.188 243.619C120.852 250.751 132.138 253.19 133.534 245.745L144.667 186.314C145.254 183.181 143.19 180.165 140.057 179.578V179.578Z" fill="#C4C4C4"/>
</g>
<defs>
<clipPath id="clip0_2237_3825">
<rect width="394" height="394" fill="white"/>
</clipPath>
</defs>
</svg>
