<svg width="394" height="394" viewBox="0 0 394 394" fill="none" xmlns="http://www.w3.org/2000/svg">
<path d="M166.287 385.7C175.612 391.125 186.208 393.982 196.996 393.982C207.784 393.982 218.38 391.125 227.705 385.7L343.804 318.063C353.075 312.625 360.765 304.86 366.114 295.536C371.463 286.213 374.284 275.655 374.299 264.906V129.094C374.29 118.34 371.471 107.775 366.122 98.4452C360.773 89.1156 353.08 81.3453 343.804 75.9042L227.712 8.30033C218.385 2.88067 207.79 0.0258789 197.002 0.0258789C186.215 0.0258789 175.62 2.88067 166.293 8.30033L50.1883 75.9304C40.9172 81.3702 33.2273 89.1366 27.8798 98.4612C22.5322 107.786 19.7123 118.345 19.6992 129.094V264.906C19.7084 275.66 22.5271 286.225 27.8761 295.555C33.2251 304.885 40.9187 312.655 50.1948 318.096L166.287 385.7ZM32.8326 264.906V129.094C32.8391 120.641 35.0534 112.336 39.2562 105.001C43.459 97.667 49.5045 91.5574 56.7943 87.2776L172.906 19.641C180.224 15.3859 188.538 13.1445 197.002 13.1445C205.467 13.1445 213.781 15.3859 221.099 19.641L337.198 87.2776C344.489 91.5561 350.536 97.6652 354.74 105C358.944 112.334 361.159 120.64 361.166 129.094V264.906C361.16 273.359 358.946 281.665 354.743 288.999C350.54 296.334 344.494 302.443 337.204 306.723L221.092 374.359C213.774 378.611 205.46 380.851 196.996 380.851C188.532 380.851 180.218 378.611 172.9 374.359L56.7943 306.723C49.5041 302.443 43.4582 296.334 39.2553 288.999C35.0525 281.665 32.8384 273.359 32.8326 264.906V264.906Z" fill="#C4C4C4"/>
<path d="M179.52 363.005C184.825 366.102 190.857 367.733 197 367.733C203.143 367.733 209.175 366.102 214.481 363.005L330.592 295.369C335.9 292.249 340.302 287.798 343.361 282.455C346.42 277.112 348.03 271.063 348.034 264.906V129.094C348.032 122.935 346.421 116.884 343.36 111.54C340.3 106.196 335.896 101.743 330.586 98.6247L214.481 30.9946C209.156 27.9542 203.131 26.355 197 26.355C190.869 26.355 184.844 27.9542 179.52 30.9946L63.421 98.6313C58.1107 101.749 53.7068 106.2 50.6454 111.543C47.584 116.886 45.9712 122.936 45.9668 129.094V264.906C45.9688 271.064 47.5797 277.116 50.6401 282.46C53.7004 287.804 58.1039 292.256 63.4144 295.375L179.52 363.005ZM59.1001 129.094C59.0988 125.231 60.1063 121.435 62.0228 118.081C63.9393 114.727 66.6984 111.932 70.0271 109.972L186.126 42.3352C189.426 40.4089 193.179 39.3938 197 39.3938C200.822 39.3938 204.574 40.4089 207.875 42.3352L323.973 109.972C327.302 111.932 330.061 114.727 331.978 118.081C333.894 121.435 334.901 125.231 334.9 129.094V264.906C334.901 268.768 333.895 272.563 331.98 275.917C330.064 279.271 327.307 282.067 323.98 284.028L207.875 351.665C204.562 353.556 200.814 354.55 197 354.55C193.186 354.55 189.438 353.556 186.126 351.665L70.0271 284.028C66.6984 282.068 63.9393 279.273 62.0228 275.919C60.1063 272.565 59.0988 268.769 59.1001 264.906V129.094Z" fill="#C4C4C4"/>
<path d="M105.067 190.433C106.808 190.433 108.479 189.741 109.71 188.51C110.941 187.278 111.633 185.608 111.633 183.867V141.906L138.839 187.248C139.423 188.22 140.248 189.024 141.234 189.582C142.22 190.14 143.334 190.433 144.467 190.433C145.059 190.433 145.649 190.353 146.22 190.197C147.604 189.813 148.824 188.987 149.694 187.843C150.563 186.7 151.034 185.303 151.033 183.867V118.2C151.033 116.458 150.341 114.788 149.11 113.557C147.879 112.325 146.208 111.633 144.467 111.633C142.725 111.633 141.055 112.325 139.823 113.557C138.592 114.788 137.9 116.458 137.9 118.2V160.161L110.694 114.818C109.955 113.588 108.832 112.634 107.499 112.102C106.166 111.571 104.695 111.491 103.312 111.874C101.929 112.258 100.709 113.084 99.8402 114.226C98.9712 115.369 98.5005 116.765 98.5 118.2V183.867C98.5 185.608 99.1918 187.278 100.423 188.51C101.655 189.741 103.325 190.433 105.067 190.433Z" fill="#C4C4C4"/>
<path d="M177.299 190.433C179.041 190.433 180.711 189.741 181.942 188.51C183.174 187.278 183.866 185.608 183.866 183.867V157.6H196.999C198.741 157.6 200.411 156.908 201.642 155.677C202.874 154.445 203.566 152.775 203.566 151.033C203.566 149.292 202.874 147.621 201.642 146.39C200.411 145.158 198.741 144.467 196.999 144.467H183.866V124.767H216.699C218.441 124.767 220.111 124.075 221.342 122.843C222.574 121.612 223.266 119.942 223.266 118.2C223.266 116.458 222.574 114.788 221.342 113.557C220.111 112.325 218.441 111.633 216.699 111.633H177.299C175.558 111.633 173.887 112.325 172.656 113.557C171.424 114.788 170.732 116.458 170.732 118.2V183.867C170.732 185.608 171.424 187.278 172.656 188.51C173.887 189.741 175.558 190.433 177.299 190.433Z" fill="#C4C4C4"/>
<path d="M242.967 124.767H256.1V183.867C256.1 185.608 256.792 187.278 258.024 188.51C259.255 189.741 260.925 190.433 262.667 190.433C264.409 190.433 266.079 189.741 267.31 188.51C268.542 187.278 269.234 185.608 269.234 183.867V124.767H282.367C284.109 124.767 285.779 124.075 287.01 122.843C288.242 121.612 288.934 119.942 288.934 118.2C288.934 116.458 288.242 114.788 287.01 113.557C285.779 112.325 284.109 111.633 282.367 111.633H242.967C241.225 111.633 239.555 112.325 238.324 113.557C237.092 114.788 236.4 116.458 236.4 118.2C236.4 119.942 237.092 121.612 238.324 122.843C239.555 124.075 241.225 124.767 242.967 124.767Z" fill="#C4C4C4"/>
<path d="M157.6 223.267H223.267C225.008 223.267 226.678 222.575 227.91 221.343C229.141 220.112 229.833 218.442 229.833 216.7C229.833 214.958 229.141 213.288 227.91 212.057C226.678 210.825 225.008 210.133 223.267 210.133H157.6C155.858 210.133 154.188 210.825 152.957 212.057C151.725 213.288 151.033 214.958 151.033 216.7C151.033 218.442 151.725 220.112 152.957 221.343C154.188 222.575 155.858 223.267 157.6 223.267Z" fill="#C4C4C4"/>
<path d="M216.699 236.4H177.299C175.558 236.4 173.887 237.092 172.656 238.323C171.424 239.555 170.732 241.225 170.732 242.967C170.732 244.708 171.424 246.378 172.656 247.61C173.887 248.841 175.558 249.533 177.299 249.533H216.699C218.441 249.533 220.111 248.841 221.342 247.61C222.574 246.378 223.266 244.708 223.266 242.967C223.266 241.225 222.574 239.555 221.342 238.323C220.111 237.092 218.441 236.4 216.699 236.4Z" fill="#C4C4C4"/>
<path d="M242.967 249.533H302.067C303.809 249.533 305.479 248.841 306.71 247.61C307.942 246.378 308.634 244.708 308.634 242.967C308.634 241.225 307.942 239.555 306.71 238.323C305.479 237.092 303.809 236.4 302.067 236.4H242.967C241.225 236.4 239.555 237.092 238.324 238.323C237.092 239.555 236.4 241.225 236.4 242.967C236.4 244.708 237.092 246.378 238.324 247.61C239.555 248.841 241.225 249.533 242.967 249.533Z" fill="#C4C4C4"/>
<path d="M216.699 288.934H177.299C175.558 288.934 173.887 289.625 172.656 290.857C171.424 292.088 170.732 293.759 170.732 295.5C170.732 297.242 171.424 298.912 172.656 300.144C173.887 301.375 175.558 302.067 177.299 302.067H216.699C218.441 302.067 220.111 301.375 221.342 300.144C222.574 298.912 223.266 297.242 223.266 295.5C223.266 293.759 222.574 292.088 221.342 290.857C220.111 289.625 218.441 288.934 216.699 288.934Z" fill="#C4C4C4"/>
<path d="M269.234 288.934H242.967C241.225 288.934 239.555 289.625 238.324 290.857C237.092 292.088 236.4 293.759 236.4 295.5C236.4 297.242 237.092 298.912 238.324 300.144C239.555 301.375 241.225 302.067 242.967 302.067H269.234C270.975 302.067 272.646 301.375 273.877 300.144C275.109 298.912 275.8 297.242 275.8 295.5C275.8 293.759 275.109 292.088 273.877 290.857C272.646 289.625 270.975 288.934 269.234 288.934Z" fill="#C4C4C4"/>
<path d="M210.133 275.8C211.874 275.8 213.545 275.108 214.776 273.877C216.008 272.645 216.699 270.975 216.699 269.233C216.699 267.492 216.008 265.821 214.776 264.59C213.545 263.358 211.874 262.667 210.133 262.667H170.733C168.991 262.667 167.321 263.358 166.089 264.59C164.858 265.821 164.166 267.492 164.166 269.233C164.166 270.975 164.858 272.645 166.089 273.877C167.321 275.108 168.991 275.8 170.733 275.8H210.133Z" fill="#C4C4C4"/>
<path d="M236.401 275.8H295.501C297.242 275.8 298.912 275.108 300.144 273.877C301.375 272.645 302.067 270.975 302.067 269.233C302.067 267.492 301.375 265.821 300.144 264.59C298.912 263.358 297.242 262.667 295.501 262.667H236.401C234.659 262.667 232.989 263.358 231.757 264.59C230.526 265.821 229.834 267.492 229.834 269.233C229.834 270.975 230.526 272.645 231.757 273.877C232.989 275.108 234.659 275.8 236.401 275.8Z" fill="#C4C4C4"/>
<path d="M131.334 210.133C129.593 210.133 127.922 210.825 126.691 212.057C125.459 213.288 124.768 214.958 124.768 216.7V295.5C124.768 297.242 125.459 298.912 126.691 300.143C127.922 301.375 129.593 302.067 131.334 302.067C133.076 302.067 134.746 301.375 135.978 300.143C137.209 298.912 137.901 297.242 137.901 295.5V216.7C137.901 214.958 137.209 213.288 135.978 212.057C134.746 210.825 133.076 210.133 131.334 210.133V210.133Z" fill="#C4C4C4"/>
<path d="M91.9339 223.267H105.067C106.809 223.267 108.479 222.575 109.711 221.343C110.942 220.112 111.634 218.442 111.634 216.7C111.634 214.958 110.942 213.288 109.711 212.057C108.479 210.825 106.809 210.133 105.067 210.133H91.9339C90.1923 210.133 88.522 210.825 87.2905 212.057C86.059 213.288 85.3672 214.958 85.3672 216.7C85.3672 218.442 86.059 220.112 87.2905 221.343C88.522 222.575 90.1923 223.267 91.9339 223.267V223.267Z" fill="#C4C4C4"/>
<path d="M91.9339 249.533H105.067C106.809 249.533 108.479 248.841 109.711 247.61C110.942 246.378 111.634 244.708 111.634 242.967C111.634 241.225 110.942 239.555 109.711 238.323C108.479 237.092 106.809 236.4 105.067 236.4H91.9339C90.1923 236.4 88.522 237.092 87.2905 238.323C86.059 239.555 85.3672 241.225 85.3672 242.967C85.3672 244.708 86.059 246.378 87.2905 247.61C88.522 248.841 90.1923 249.533 91.9339 249.533V249.533Z" fill="#C4C4C4"/>
<path d="M91.9339 275.8H105.067C106.809 275.8 108.479 275.108 109.711 273.877C110.942 272.645 111.634 270.975 111.634 269.233C111.634 267.492 110.942 265.821 109.711 264.59C108.479 263.358 106.809 262.667 105.067 262.667H91.9339C90.1923 262.667 88.522 263.358 87.2905 264.59C86.059 265.821 85.3672 267.492 85.3672 269.233C85.3672 270.975 86.059 272.645 87.2905 273.877C88.522 275.108 90.1923 275.8 91.9339 275.8V275.8Z" fill="#C4C4C4"/>
</svg>
