<svg width="394" height="394" viewBox="0 0 394 394" fill="none" xmlns="http://www.w3.org/2000/svg">
<path d="M270.875 68.0327V67.7188C270.875 64.3205 268.123 61.5625 264.719 61.5625H6.15625C2.75184 61.5625 0 64.3205 0 67.7188V326.281C0 329.686 2.75184 332.438 6.15625 332.438H264.719C268.123 332.438 270.875 329.686 270.875 326.281V325.961C339.289 322.717 394 266.202 394 197C394 127.791 339.289 71.2771 270.875 68.0327V68.0327ZM270.875 179.676C278.022 182.225 283.188 188.991 283.188 197C283.188 205.009 278.022 211.775 270.875 214.318V179.676ZM258.562 320.125H12.3125V73.875H258.562V320.125ZM270.875 313.649V227.141C284.905 224.284 295.5 211.861 295.5 197C295.5 182.139 284.905 169.709 270.875 166.853V80.3452C332.505 83.5772 381.688 134.582 381.688 197C381.688 259.418 332.505 310.423 270.875 313.649Z" fill="#C4C4C4"/>
<path d="M330.006 123.002C327.599 125.409 327.599 129.306 330.006 131.707C347.447 149.141 357.051 172.332 357.051 197C357.051 221.668 347.447 244.859 330.006 262.299C327.599 264.706 327.599 268.597 330.006 271.004C331.207 272.205 332.783 272.808 334.359 272.808C335.935 272.808 337.511 272.205 338.711 271.004C358.479 251.237 369.363 224.962 369.363 197C369.363 169.038 358.479 142.763 338.718 123.002C336.311 120.601 332.414 120.601 330.006 123.002Z" fill="#C4C4C4"/>
<path d="M321.301 140.418C318.894 138.011 315.003 138.011 312.596 140.418C310.189 142.825 310.189 146.716 312.596 149.123C338.994 175.527 338.994 218.492 312.596 244.896C310.189 247.303 310.189 251.194 312.596 253.601C313.797 254.801 315.373 255.405 316.949 255.405C318.525 255.405 320.101 254.801 321.301 253.601C352.507 222.389 352.507 171.618 321.301 140.418Z" fill="#C4C4C4"/>
<path d="M303.891 157.828C301.484 155.421 297.593 155.421 295.186 157.828C292.779 160.235 292.779 164.126 295.186 166.533C311.987 183.333 311.987 210.673 295.186 227.473C292.779 229.881 292.779 233.771 295.186 236.178C296.387 237.379 297.963 237.982 299.539 237.982C301.115 237.982 302.691 237.379 303.891 236.178C325.493 214.57 325.493 179.424 303.891 157.828V157.828Z" fill="#C4C4C4"/>
<path d="M135.449 240.081C169.395 240.081 197.012 212.471 197.012 178.531C197.012 144.586 169.395 116.969 135.449 116.969C101.504 116.969 73.8867 144.586 73.8867 178.531C73.8867 212.471 101.504 240.081 135.449 240.081V240.081ZM135.449 129.281C162.604 129.281 184.699 151.376 184.699 178.531C184.699 205.68 162.604 227.769 135.449 227.769C108.294 227.769 86.1992 205.68 86.1992 178.531C86.1992 151.376 108.294 129.281 135.449 129.281Z" fill="#C4C4C4"/>
<path d="M135.449 209.306C152.422 209.306 166.23 195.498 166.23 178.531C166.23 161.558 152.422 147.75 135.449 147.75C118.476 147.75 104.668 161.558 104.668 178.531C104.668 195.498 118.476 209.306 135.449 209.306ZM135.449 160.063C145.632 160.063 153.918 168.349 153.918 178.531C153.918 188.714 145.632 196.994 135.449 196.994C125.267 196.994 116.98 188.714 116.98 178.531C116.98 168.349 125.267 160.063 135.449 160.063Z" fill="#C4C4C4"/>
<path d="M209.337 252.4H61.5625C58.1581 252.4 55.4062 255.152 55.4062 258.556C55.4062 261.961 58.1581 264.712 61.5625 264.712H209.337C212.742 264.712 215.493 261.961 215.493 258.556C215.493 255.152 212.742 252.4 209.337 252.4Z" fill="#C4C4C4"/>
<path d="M166.22 270.869H104.682C101.277 270.869 98.5254 273.62 98.5254 277.025C98.5254 280.429 101.277 283.181 104.682 283.181H166.22C169.624 283.181 172.376 280.429 172.376 277.025C172.376 273.62 169.624 270.869 166.22 270.869Z" fill="#C4C4C4"/>
</svg>
