<svg width="48" height="45" viewBox="0 0 48 45" fill="none" xmlns="http://www.w3.org/2000/svg">
<path d="M44.5737 6.33445L34.4646 1.01025" stroke="#FFD132"/>
<path d="M35.3047 7.94043L40.6597 2.69043" stroke="#FFD132"/>
<path d="M34.4647 1.0105L23.8947 6.4005" stroke="#FFD132"/>
<path d="M35.3046 7.9405L34.4646 1.0105" stroke="#FFD132"/>
<path d="M44.5446 6.33032L40.5546 13.3303L35.3046 22.7103L30.8246 35.6603" stroke="#FFD132"/>
<path d="M23.9297 44.3404L30.8207 35.6654L35.7597 35.1704" stroke="#FFD132"/>
<path d="M45.9447 19.5604L35.3047 7.94043L23.8947 13.6104" stroke="#FFD132"/>
<path d="M35.3046 7.94039L23.9646 6.40039" stroke="#FFD132"/>
<path d="M35.3047 22.7103L45.9447 19.5603" stroke="#FFD132"/>
<path d="M41.3246 28.7303L35.3046 22.7103L23.9121 21.2403L40.5546 13.3303" stroke="#FFD132"/>
<path d="M23.9121 28.7304L35.3046 22.7104" stroke="#FFD132"/>
<path d="M46.8196 13.5403L40.5546 13.3303L39.6096 3.70532" stroke="#FFD132"/>
<path d="M23.9121 21.2404L35.3046 7.94043" stroke="#FFD132"/>
<path d="M41.3246 28.7305L30.8246 35.6605L23.9121 28.7305" stroke="#FFD132"/>
<path fill-rule="evenodd" clip-rule="evenodd" d="M23.9122 6.38136L21.7429 4.03678L19.0074 2.28853L13.3709 1.0083L7.16672 2.67031L3.24329 6.30821L1.00623 13.5322L1.88193 19.5495L6.50242 28.7457L12.0807 35.1821L19.4015 41.3471L23.9122 44.3513L28.4229 41.3471L35.7437 35.1821L41.322 28.7457L45.9424 19.5495L46.8181 13.5322L44.5811 6.30821L40.6577 2.67031L34.4535 1.0083L28.8169 2.28853L26.0815 4.03678L23.9122 6.38136Z" stroke="#FFD132"/>
<path d="M3.25061 6.33445L13.3597 1.01025" stroke="#FFD132"/>
<path d="M12.5197 7.94052L7.16467 2.65552" stroke="#FFD132"/>
<path d="M13.3596 1.0105L23.9296 6.4005" stroke="#FFD132"/>
<path d="M12.5197 7.9405L13.3597 1.0105" stroke="#FFD132"/>
<path d="M3.27966 6.33032L7.26966 13.3303L12.5197 22.7103L16.9997 35.6603" stroke="#FFD132"/>
<path d="M23.8947 44.3404L16.9997 35.6604L12.0647 35.1704" stroke="#FFD132"/>
<path d="M1.87964 19.5604L12.5196 7.94043L23.9296 13.6104" stroke="#FFD132"/>
<path d="M12.5197 7.94039L23.8597 6.40039" stroke="#FFD132"/>
<path d="M12.5196 22.7103L1.87964 19.5603" stroke="#FFD132"/>
<path d="M6.49963 28.7303L12.5196 22.7103L23.9121 21.2403L7.26963 13.3303" stroke="#FFD132"/>
<path d="M23.9122 28.7304L12.5197 22.7104" stroke="#FFD132"/>
<path d="M1.00464 13.5403L7.26964 13.3303L8.24964 3.70532" stroke="#FFD132"/>
<path d="M23.9122 21.2404L12.5197 7.94043" stroke="#FFD132"/>
<path d="M6.49963 28.7305L16.9996 35.6605L23.9121 28.7305" stroke="#FFD132"/>
<path d="M23.9947 6.40039L23.8947 44.3404" stroke="#FFD132"/>
</svg>
