<svg width="204" height="46" viewBox="0 0 204 46" fill="none" xmlns="http://www.w3.org/2000/svg">
<path fill-rule="evenodd" clip-rule="evenodd" d="M79.1884 14.5858V20.8255L64.4997 6.13675L64.4803 6.15614V6.10547C60.1943 6.10547 56 10.4088 56 14.5858V38.1292H64.4803V18.1105L79.1884 32.8184V38.1292H87.6688V6.10547C83.3827 6.10547 79.1884 10.4088 79.1884 14.5858Z" fill="white"/>
<path fill-rule="evenodd" clip-rule="evenodd" d="M164.044 6.1055H148.501V6.07544L148.471 6.1055H140.5C136.324 6.1055 132.02 10.2998 132.02 14.5858H140.021V38.0992H148.501V14.5858H164.044V6.1055Z" fill="white"/>
<path fill-rule="evenodd" clip-rule="evenodd" d="M131.96 14.5858V6.10547H109.644C105.489 6.10547 101.21 10.2548 101.165 14.517V6.10547C96.8786 6.10547 92.6843 10.4088 92.6843 14.5858V38.1292H101.165V26.4434H124.791V17.9632H109.644C105.489 17.9632 101.21 22.1126 101.165 26.3746V14.5858H131.96Z" fill="white"/>
<path d="M44.5737 6.33445L34.4646 1.01025" stroke="#FFD132"/>
<path d="M35.3047 7.94043L40.6597 2.69043" stroke="#FFD132"/>
<path d="M34.4647 1.0105L23.8947 6.4005" stroke="#FFD132"/>
<path d="M35.3046 7.9405L34.4646 1.0105" stroke="#FFD132"/>
<path d="M44.5446 6.33032L40.5546 13.3303L35.3046 22.7103L30.8246 35.6603" stroke="#FFD132"/>
<path d="M23.9297 44.3404L30.8207 35.6654L35.7597 35.1704" stroke="#FFD132"/>
<path d="M45.9447 19.5604L35.3047 7.94043L23.8947 13.6104" stroke="#FFD132"/>
<path d="M35.3046 7.94039L23.9646 6.40039" stroke="#FFD132"/>
<path d="M35.3047 22.7103L45.9447 19.5603" stroke="#FFD132"/>
<path d="M41.3246 28.7303L35.3046 22.7103L23.9121 21.2403L40.5546 13.3303" stroke="#FFD132"/>
<path d="M23.9121 28.7304L35.3046 22.7104" stroke="#FFD132"/>
<path d="M46.8196 13.5403L40.5546 13.3303L39.6096 3.70532" stroke="#FFD132"/>
<path d="M23.9121 21.2404L35.3046 7.94043" stroke="#FFD132"/>
<path d="M41.3246 28.7305L30.8246 35.6605L23.9121 28.7305" stroke="#FFD132"/>
<path fill-rule="evenodd" clip-rule="evenodd" d="M23.9122 6.38136L21.7429 4.03678L19.0074 2.28853L13.3709 1.0083L7.16672 2.67031L3.24329 6.30821L1.00623 13.5322L1.88193 19.5495L6.50242 28.7457L12.0807 35.1821L19.4015 41.3471L23.9122 44.3513L28.4229 41.3471L35.7437 35.1821L41.322 28.7457L45.9424 19.5495L46.8181 13.5322L44.5811 6.30821L40.6577 2.67031L34.4535 1.0083L28.8169 2.28853L26.0815 4.03678L23.9122 6.38136Z" stroke="#FFD132"/>
<path d="M3.25061 6.33445L13.3597 1.01025" stroke="#FFD132"/>
<path d="M12.5197 7.94052L7.16467 2.65552" stroke="#FFD132"/>
<path d="M13.3596 1.0105L23.9296 6.4005" stroke="#FFD132"/>
<path d="M12.5197 7.9405L13.3597 1.0105" stroke="#FFD132"/>
<path d="M3.27966 6.33032L7.26966 13.3303L12.5197 22.7103L16.9997 35.6603" stroke="#FFD132"/>
<path d="M23.8947 44.3404L16.9997 35.6604L12.0647 35.1704" stroke="#FFD132"/>
<path d="M1.87964 19.5604L12.5196 7.94043L23.9296 13.6104" stroke="#FFD132"/>
<path d="M12.5197 7.94039L23.8597 6.40039" stroke="#FFD132"/>
<path d="M12.5196 22.7103L1.87964 19.5603" stroke="#FFD132"/>
<path d="M6.49963 28.7303L12.5196 22.7103L23.9121 21.2403L7.26963 13.3303" stroke="#FFD132"/>
<path d="M23.9122 28.7304L12.5197 22.7104" stroke="#FFD132"/>
<path d="M1.00464 13.5403L7.26964 13.3303L8.24964 3.70532" stroke="#FFD132"/>
<path d="M23.9122 21.2404L12.5197 7.94043" stroke="#FFD132"/>
<path d="M6.49963 28.7305L16.9996 35.6605L23.9121 28.7305" stroke="#FFD132"/>
<path d="M23.9947 6.40039L23.8947 44.3404" stroke="#FFD132"/>
<path d="M174.569 18H177.365C178.836 18 179.619 17.233 179.619 16.1911C179.619 15.2227 178.925 14.6378 178.18 14.6026V14.5387C178.861 14.3853 179.363 13.9027 179.363 13.1325C179.363 12.1513 178.634 11.4545 177.19 11.4545H174.569V18ZM175.953 16.8686V15.13H177.113C177.778 15.13 178.19 15.5135 178.19 16.0536C178.19 16.5458 177.854 16.8686 177.081 16.8686H175.953ZM175.953 14.1935V12.5732H177.004C177.618 12.5732 177.966 12.8896 177.966 13.3626C177.966 13.8803 177.544 14.1935 176.979 14.1935H175.953ZM181.239 18H185.662V16.859H182.623V15.2962H185.423V14.1552H182.623V12.5955H185.65V11.4545H181.239V18ZM187.221 12.5955H189.224V18H190.592V12.5955H192.596V11.4545H187.221V12.5955ZM194.521 18L195.007 16.5075H197.369L197.855 18H199.338L197.081 11.4545H195.298L193.038 18H194.521ZM195.359 15.4272L196.164 12.9503H196.215L197.02 15.4272H195.359Z" fill="#FFD132"/>
<rect x="170.5" y="6.5" width="33" height="16" rx="1.5" stroke="#FFD132"/>
</svg>
