<svg width="383" height="92" viewBox="0 0 383 92" fill="none" xmlns="http://www.w3.org/2000/svg">
<path d="M369.721 0.870117H377.831L377.951 10.4501H382.911V19.2101H377.951V29.1201C377.951 30.2601 378.581 30.8301 379.821 30.8301H382.521V37.4801H377.071C374.651 37.4801 372.811 36.8101 371.571 35.4801C370.321 34.1401 369.701 32.2901 369.701 29.9101V19.2001H366.361V10.4401H369.701V4.14012L369.721 0.870117Z" fill="#3C3C3B"/>
<path d="M366.31 10.4504V19.2104H365.23C363.23 19.2104 361.75 19.6704 360.78 20.6004C359.82 21.5304 359.33 23.0704 359.33 25.2204V37.4804H351.07V10.4404H358.88V15.1404C359.24 13.3504 360 12.1204 361.14 11.4504C362.29 10.7904 363.88 10.4504 365.91 10.4504H366.31Z" fill="#3C3C3B"/>
<path d="M345.71 13.22C343.66 11.38 340.82 10.46 337.18 10.46C334.17 10.46 331.63 11.19 329.57 12.64C327.51 14.09 326.22 16.1 325.69 18.67H333.21C333.86 17.43 335.11 16.81 336.94 16.81C338.05 16.81 338.93 17.12 339.57 17.74C340.21 18.36 340.53 19.16 340.53 20.14V23.1199C338.96 21.8499 336.71 21.21 333.8 21.21C330.72 21.21 328.29 21.8999 326.51 23.2599C324.72 24.6299 323.83 26.5999 323.83 29.1799C323.83 31.5599 324.67 33.75 326.36 35.25C328.04 36.75 330.34 37.49 333.26 37.49C336.77 37.49 339.3 36.58 340.87 34.75V37.49H348.78H348.79V20.7299C348.78 17.5599 347.75 15.06 345.71 13.22ZM339.21 31.1499C338.34 31.7199 337.26 32 335.99 32C334.65 32 333.57 31.74 332.74 31.22C331.92 30.7 331.51 29.97 331.51 29.02C331.51 27.03 333.03 26.0399 336.08 26.0399C337.36 26.0399 338.41 26.32 339.25 26.89C340.09 27.46 340.5 28.17 340.5 29.02C340.51 29.87 340.07 30.5799 339.21 31.1499Z" fill="#3C3C3B"/>
<path d="M318.421 13.6704C316.361 11.5204 313.461 10.4404 309.731 10.4404C305.901 10.4404 302.911 11.5304 300.771 13.7204C298.621 15.9004 297.551 18.8204 297.551 22.4704V25.6504C297.551 29.2704 298.671 32.3504 300.921 34.4004C303.161 36.4504 306.161 37.4804 309.931 37.4804C312.851 37.4804 315.371 36.7104 317.491 35.1604C319.621 33.6204 320.911 31.4004 321.371 29.0204H314.101C313.411 30.6504 312.021 31.4704 309.921 31.4704C308.511 31.4704 307.421 31.0504 306.651 30.2204C305.871 29.3904 305.491 28.3204 305.491 27.0204V26.4304H321.511H321.521V21.7304C321.511 18.5104 320.481 15.8204 318.421 13.6704ZM313.931 21.6504H305.481V21.1104C305.481 17.8804 306.911 16.2704 309.751 16.2704C311.121 16.2704 312.161 16.6704 312.871 17.4904C313.581 18.3104 313.931 19.3804 313.931 20.7204V21.6504Z" fill="#3C3C3B"/>
<path d="M295.242 37.4801H286.792V23.2501H274.802V37.4801H266.352V0.870117H274.802V15.7301H286.792V0.870117H295.242V37.4801Z" fill="#3C3C3B"/>
<path d="M248.43 10.4404L253.15 26.5804L256.04 10.4404H264.05L257.41 37.4804H249.95L244.88 21.1504L239.83 37.4804H232.37L225.73 10.4404H233.74L236.63 26.5804L241.35 10.4404H248.43Z" fill="#3C3C3B"/>
<path d="M222.62 13.7002C220.4 11.5302 217.33 10.4502 213.43 10.4502C209.54 10.4502 206.48 11.5302 204.24 13.7002C202.02 15.8702 200.9 18.6702 200.9 22.1302V25.5502C200.9 29.0102 202.01 32.0602 204.24 34.2302C206.46 36.4002 209.53 37.4802 213.43 37.4802C217.32 37.4802 220.39 36.4002 222.62 34.2302C224.84 32.0602 225.96 29.0102 225.96 25.5502V22.1302C225.96 18.6702 224.84 15.8702 222.62 13.7002ZM217.95 25.9902C217.95 27.3902 217.58 28.5302 216.82 29.4102C216.07 30.2902 214.94 30.7302 213.43 30.7302C211.93 30.7302 210.8 30.2902 210.04 29.4102C209.28 28.5302 208.91 27.3902 208.91 25.9902V21.6902C208.91 20.2902 209.28 19.1502 210.04 18.2702C210.79 17.4002 211.92 16.9502 213.43 16.9502C214.93 16.9502 216.06 17.3902 216.82 18.2702C217.58 19.1502 217.95 20.2902 217.95 21.6902V25.9902Z" fill="#3C3C3B"/>
<path d="M198.602 37.4797H190.352V0.969727H198.612V37.4797H198.602Z" fill="#3C3C3B"/>
<path d="M188.061 0.969727H179.801V37.4797H188.061V0.969727Z" fill="#3C3C3B"/>
<path d="M174.401 13.6704C172.341 11.5204 169.441 10.4404 165.711 10.4404C161.881 10.4404 158.891 11.5304 156.751 13.7204C154.601 15.9004 153.531 18.8204 153.531 22.4704V25.6504C153.531 29.2704 154.651 32.3504 156.901 34.4004C159.141 36.4504 162.151 37.4804 165.921 37.4804C168.841 37.4804 171.361 36.7104 173.481 35.1604C175.611 33.6204 176.901 31.4004 177.361 29.0204H170.091C169.401 30.6504 168.011 31.4704 165.911 31.4704C164.501 31.4704 163.411 31.0504 162.641 30.2204C161.871 29.3904 161.481 28.3204 161.481 27.0204V26.4304H177.501H177.511V21.7304C177.501 18.5104 176.471 15.8204 174.401 13.6704ZM169.931 21.6504H161.481V21.1104C161.481 17.8804 162.911 16.2704 165.751 16.2704C167.121 16.2704 168.161 16.6704 168.871 17.4904C169.581 18.3104 169.931 19.3804 169.931 20.7204V21.6504V21.6504Z" fill="#3C3C3B"/>
<path d="M160.011 0.870117L147.181 24.6701V37.5101H138.731V24.6701L126.551 0.870117H135.741L142.941 16.6601L150.811 0.870117H160.011Z" fill="#3C3C3B"/>
<path d="M69.5612 0.870849L68.6152 2.66699L89.178 13.4968L90.124 11.7007L69.5612 0.870849Z" fill="#FFD132"/>
<path d="M80.9612 4.46355L70.0742 15.1416L71.4956 16.5908L82.3826 5.91277L80.9612 4.46355Z" fill="#FFD132"/>
<path d="M68.6205 0.875114L47.123 11.835L48.0451 13.6435L69.5425 2.68364L68.6205 0.875114Z" fill="#FFD132"/>
<path d="M70.0855 1.64446L68.0703 1.88867L69.7786 15.985L71.7938 15.7408L70.0855 1.64446Z" fill="#FFD132"/>
<path d="M62.6407 72.5699L60.7207 71.9099L69.8307 45.5699L80.5807 26.3298L88.7007 12.0898L90.4707 13.0898L82.3507 27.3298L71.6807 46.3998L62.6407 72.5699Z" fill="#FFD132"/>
<path d="M48.4494 90.5195L46.8594 89.2595L61.1394 71.2795L71.6194 70.2295L71.8194 72.2495L62.1994 73.2195L48.4494 90.5195Z" fill="#FFD132"/>
<path d="M91.6809 40.1794L70.5609 17.1194L48.0409 28.3094L47.1309 26.4894L71.0309 14.6094L93.1809 38.8094L91.6809 40.1794Z" fill="#FFD132"/>
<path d="M47.865 11.7375L47.5918 13.749L70.65 16.8812L70.9233 14.8696L47.865 11.7375Z" fill="#FFD132"/>
<path d="M92.1421 38.5185L70.502 44.9307L71.0787 46.877L92.7188 40.4649L92.1421 38.5185Z" fill="#FFD132"/>
<path d="M82.3205 58.8602L70.3205 46.8701L44.0605 43.4801L81.0305 25.9102L81.9105 27.7402L51.1805 42.3502L71.2705 44.9402L83.7505 57.4301L82.3205 58.8602Z" fill="#FFD132"/>
<path d="M70.3106 45.029L47.1367 57.2539L48.0839 59.0494L71.2578 46.8245L70.3106 45.029Z" fill="#FFD132"/>
<path d="M94.1793 28.2694L80.5393 27.8094L78.5293 7.34943L80.5593 7.14941L82.3893 25.8394L94.2393 26.2394L94.1793 28.2694Z" fill="#FFD132"/>
<path d="M70.0146 15.1981L46.8574 42.251L48.3996 43.5711L71.5568 16.5182L70.0146 15.1981Z" fill="#FFD132"/>
<path d="M61.5504 73.5498L46.9004 58.8598L48.3404 57.4298L61.8104 70.9298L82.4704 57.2998L83.5904 58.9898L61.5504 73.5498Z" fill="#FFD132"/>
<path d="M47.62 91.1397L37.88 84.6497L22.9 72.0397L11.3 58.6297L1.81 39.6197L0 27.1597L4.7 11.9897L13.06 4.23973L26.16 0.729721L38.19 3.51973L43.95 7.23973L47.62 11.1997L51.48 7.06973L57.36 3.37973L69.07 0.719727L82.17 4.22972L90.53 11.9797L95.23 27.1497L93.32 39.9297L83.78 58.8397L72.44 71.9297L57.44 84.5797L47.62 91.1397ZM13.07 57.6097L24.33 70.5997L39.11 83.0197L47.63 88.6897L56.24 82.9497L71.04 70.4797L82.19 57.5997L91.46 39.1597L93.18 27.3097L88.78 13.0997L81.19 6.05972L69.06 2.80972L58 5.31973L52.7 8.70973L47.63 14.1897L42.56 8.70973L37.26 5.31973L26.22 2.80972L14.09 6.05972L6.5 13.0997L2.1 27.3097L3.82 39.1597L13.07 57.6097Z" fill="#FFD132"/>
<path d="M25.7037 0.875609L5.13867 11.7031L6.08445 13.4995L26.6495 2.67195L25.7037 0.875609Z" fill="#FFD132"/>
<path d="M14.2698 4.40388L12.8438 5.84863L23.7328 16.5969L25.1588 15.1521L14.2698 4.40388Z" fill="#FFD132"/>
<path d="M26.6293 0.875068L25.707 2.68359L47.2045 13.6459L48.1267 11.8373L26.6293 0.875068Z" fill="#FFD132"/>
<path d="M25.1566 1.64931L23.4512 15.7471L25.4666 15.9909L27.172 1.89311L25.1566 1.64931Z" fill="#FFD132"/>
<path d="M32.5993 72.5699L23.4893 46.2298L12.8893 27.3199L4.7793 13.0898L6.5493 12.0898L14.6593 26.3199L25.3393 45.4099L34.5293 71.9099L32.5993 72.5699Z" fill="#FFD132"/>
<path d="M46.7897 90.5195L33.0397 73.2095L23.4297 72.2495L23.6297 70.2295L34.0897 71.2695L48.3797 89.2595L46.7897 90.5195Z" fill="#FFD132"/>
<path d="M3.57031 40.1794L2.07031 38.8094L24.2203 14.6094L48.1103 26.4894L47.2103 28.3094L24.6903 17.1194L3.57031 40.1794Z" fill="#FFD132"/>
<path d="M47.3746 11.7259L24.3164 14.8604L24.5898 16.8719L47.6481 13.7374L47.3746 11.7259Z" fill="#FFD132"/>
<path d="M3.11538 38.528L2.53906 40.4746L24.1814 46.8822L24.7578 44.9357L3.11538 38.528Z" fill="#FFD132"/>
<path d="M12.9302 58.8602L11.4902 57.4301L23.9802 44.9402L44.0602 42.3502L13.3402 27.7402L14.2102 25.9102L51.1802 43.4801L24.9302 46.8701L12.9302 58.8602Z" fill="#FFD132"/>
<path d="M24.9172 45.0031L23.9688 46.7979L47.1322 59.0385L48.0806 57.2438L24.9172 45.0031Z" fill="#FFD132"/>
<path d="M1.07 28.2694L1 26.2394L12.86 25.8394L14.76 7.14941L16.78 7.35942L14.7 27.8094L1.07 28.2694Z" fill="#FFD132"/>
<path d="M25.2293 15.2096L23.6875 16.5303L46.8554 43.5761L48.3972 42.2554L25.2293 15.2096Z" fill="#FFD132"/>
<path d="M33.7004 73.5498L11.6504 58.9898L12.7704 57.2998L33.4304 70.9298L46.9004 57.4298L48.3404 58.8598L33.7004 73.5498Z" fill="#FFD132"/>
<path d="M46.7523 12.7287L46.6016 89.8887L48.6316 89.8926L48.7823 12.7326L46.7523 12.7287Z" fill="#FFD132"/>
<path d="M150.289 71.0793C150.289 77.8593 145.889 81.7793 138.269 81.7793H130.209V91.5593H126.689V60.7393H138.269C145.889 60.7293 150.289 64.5193 150.289 71.0793ZM146.899 71.1693C146.899 66.4593 143.689 63.9893 138.139 63.9893H130.209V78.5193H138.139C143.689 78.5193 146.899 76.0093 146.899 71.1693Z" fill="#3C3C3B"/>
<path d="M178.959 91.56L172.489 81.7C171.869 81.74 171.209 81.79 170.509 81.79H162.319V91.57H158.799V60.75H170.509C178.219 60.75 182.659 64.54 182.659 71.1C182.659 76.16 180.149 79.64 175.699 81.05L182.969 91.57H178.959V91.56ZM170.509 78.52C176.099 78.52 179.269 76.01 179.269 71.17C179.269 66.46 176.099 63.99 170.509 63.99H162.319V78.52H170.509Z" fill="#3C3C3B"/>
<path d="M222.649 76.1494C222.649 84.8194 215.519 91.6894 206.529 91.6894C197.499 91.6894 190.369 84.8194 190.369 76.1494C190.369 67.4794 197.499 60.6494 206.529 60.6494C215.519 60.6494 222.649 67.4694 222.649 76.1494ZM193.939 76.1494C193.939 82.9694 199.659 88.4794 206.529 88.4794C213.399 88.4794 219.039 82.9794 219.039 76.1494C219.039 69.3194 213.399 63.9094 206.529 63.9094C199.659 63.8994 193.939 69.3194 193.939 76.1494Z" fill="#3C3C3B"/>
<path d="M250.79 60.7295V63.9895H240.71V91.5595H237.19V63.9895H227.15V60.7295H250.79Z" fill="#3C3C3B"/>
<path d="M285.94 76.1494C285.94 84.8194 278.81 91.6894 269.82 91.6894C260.79 91.6894 253.66 84.8194 253.66 76.1494C253.66 67.4794 260.79 60.6494 269.82 60.6494C278.8 60.6494 285.94 67.4694 285.94 76.1494ZM257.23 76.1494C257.23 82.9694 262.95 88.4794 269.82 88.4794C276.69 88.4794 282.33 82.9794 282.33 76.1494C282.33 69.3194 276.69 63.9094 269.82 63.9094C262.95 63.9094 257.23 69.3194 257.23 76.1494Z" fill="#3C3C3B"/>
<path d="M307.47 63.8596C300.51 63.8596 294.92 69.2797 294.92 76.0997C294.92 82.8797 300.51 88.3896 307.47 88.3896C310.86 88.3896 314.16 86.9797 316.58 84.6897L318.74 87.0197C315.7 89.8797 311.56 91.6897 307.29 91.6897C298.39 91.6897 291.35 84.8197 291.35 76.0997C291.35 67.4697 298.48 60.6396 307.42 60.6396C311.65 60.6396 315.74 62.3597 318.69 65.1297L316.57 67.6796C314.21 65.3096 310.86 63.8596 307.47 63.8596Z" fill="#3C3C3B"/>
<path d="M356.36 76.1494C356.36 84.8194 349.23 91.6894 340.24 91.6894C331.21 91.6894 324.08 84.8194 324.08 76.1494C324.08 67.4794 331.21 60.6494 340.24 60.6494C349.22 60.6494 356.36 67.4694 356.36 76.1494ZM327.65 76.1494C327.65 82.9694 333.37 88.4794 340.24 88.4794C347.11 88.4794 352.75 82.9794 352.75 76.1494C352.75 69.3194 347.11 63.9094 340.24 63.9094C333.37 63.9094 327.65 69.3194 327.65 76.1494Z" fill="#3C3C3B"/>
<path d="M368.95 60.7295V88.2995H382.47V91.5595H365.43V60.7395H368.95V60.7295Z" fill="#3C3C3B"/>
</svg>
