<svg width="383" height="91" viewBox="0 0 383 91" fill="none" xmlns="http://www.w3.org/2000/svg">
<path d="M369.721 0.150391H377.831L377.951 9.73039H382.911V18.4904H377.951V28.4004C377.951 29.5404 378.581 30.1104 379.821 30.1104H382.521V36.7604H377.071C374.651 36.7604 372.811 36.0904 371.571 34.7604C370.321 33.4204 369.701 31.5704 369.701 29.1904V18.4904H366.361V9.72039H369.701V3.42039L369.721 0.150391Z" fill="white"/>
<path d="M366.31 9.7307V18.4907H365.23C363.23 18.4907 361.75 18.9507 360.78 19.8807C359.82 20.8107 359.33 22.3507 359.33 24.5007V36.7607H351.07V9.7207H358.88V14.4207C359.24 12.6307 360 11.4007 361.14 10.7307C362.29 10.0707 363.88 9.7307 365.91 9.7307H366.31Z" fill="white"/>
<path d="M345.71 12.5002C343.66 10.6602 340.82 9.74023 337.18 9.74023C334.17 9.74023 331.63 10.4702 329.57 11.9202C327.51 13.3702 326.22 15.3802 325.69 17.9502H333.21C333.86 16.7102 335.11 16.0902 336.94 16.0902C338.05 16.0902 338.93 16.4002 339.57 17.0202C340.21 17.6402 340.53 18.4402 340.53 19.4202V22.4002C338.96 21.1302 336.71 20.4902 333.8 20.4902C330.72 20.4902 328.29 21.1802 326.51 22.5402C324.72 23.9102 323.83 25.8802 323.83 28.4602C323.83 30.8402 324.67 33.0302 326.36 34.5302C328.04 36.0302 330.34 36.7702 333.26 36.7702C336.77 36.7702 339.3 35.8602 340.87 34.0302V36.7702H348.78H348.79V20.0002C348.78 16.8402 347.75 14.3402 345.71 12.5002ZM339.21 30.4302C338.34 31.0002 337.26 31.2802 335.99 31.2802C334.65 31.2802 333.57 31.0202 332.74 30.5002C331.92 29.9802 331.51 29.2502 331.51 28.3002C331.51 26.3102 333.03 25.3202 336.08 25.3202C337.36 25.3202 338.41 25.6002 339.25 26.1702C340.09 26.7402 340.5 27.4502 340.5 28.3002C340.51 29.1502 340.07 29.8602 339.21 30.4302Z" fill="white"/>
<path d="M318.421 12.9507C316.361 10.8007 313.461 9.7207 309.731 9.7207C305.901 9.7207 302.911 10.8107 300.771 13.0007C298.621 15.1807 297.551 18.1007 297.551 21.7507V24.9307C297.551 28.5507 298.671 31.6307 300.921 33.6807C303.161 35.7307 306.161 36.7607 309.931 36.7607C312.851 36.7607 315.371 35.9907 317.491 34.4407C319.621 32.9007 320.911 30.6807 321.371 28.3007H314.101C313.411 29.9307 312.021 30.7507 309.921 30.7507C308.511 30.7507 307.421 30.3307 306.651 29.5007C305.871 28.6707 305.491 27.6007 305.491 26.3007V25.7107H321.511H321.521V21.0107C321.511 17.7907 320.481 15.1007 318.421 12.9507ZM313.931 20.9307H305.481V20.3907C305.481 17.1607 306.911 15.5507 309.751 15.5507C311.121 15.5507 312.161 15.9507 312.871 16.7707C313.581 17.5907 313.931 18.6607 313.931 20.0007V20.9307Z" fill="white"/>
<path d="M295.242 36.7604H286.792V22.5304H274.802V36.7604H266.352V0.150391H274.802V15.0104H286.792V0.150391H295.242V36.7604Z" fill="white"/>
<path d="M248.43 9.7207L253.15 25.8607L256.04 9.7207H264.05L257.41 36.7607H249.95L244.88 20.4307L239.83 36.7607H232.37L225.73 9.7207H233.74L236.63 25.8607L241.35 9.7207H248.43Z" fill="white"/>
<path d="M222.62 12.9805C220.4 10.8105 217.33 9.73047 213.43 9.73047C209.54 9.73047 206.48 10.8105 204.24 12.9805C202.02 15.1505 200.9 17.9505 200.9 21.4105V24.8305C200.9 28.2905 202.01 31.3405 204.24 33.5105C206.46 35.6805 209.53 36.7605 213.43 36.7605C217.32 36.7605 220.39 35.6805 222.62 33.5105C224.84 31.3405 225.96 28.2905 225.96 24.8305V21.4105C225.96 17.9505 224.84 15.1505 222.62 12.9805ZM217.95 25.2705C217.95 26.6705 217.58 27.8105 216.82 28.6905C216.07 29.5705 214.94 30.0105 213.43 30.0105C211.93 30.0105 210.8 29.5705 210.04 28.6905C209.28 27.8105 208.91 26.6705 208.91 25.2705V20.9705C208.91 19.5705 209.28 18.4305 210.04 17.5505C210.79 16.6805 211.92 16.2305 213.43 16.2305C214.93 16.2305 216.06 16.6705 216.82 17.5505C217.58 18.4305 217.95 19.5705 217.95 20.9705V25.2705Z" fill="white"/>
<path d="M198.602 36.76H190.352V0.25H198.612V36.76H198.602Z" fill="white"/>
<path d="M188.061 0.25H179.801V36.76H188.061V0.25Z" fill="white"/>
<path d="M174.401 12.9507C172.341 10.8007 169.441 9.7207 165.711 9.7207C161.881 9.7207 158.891 10.8107 156.751 13.0007C154.601 15.1807 153.531 18.1007 153.531 21.7507V24.9307C153.531 28.5507 154.651 31.6307 156.901 33.6807C159.141 35.7307 162.151 36.7607 165.921 36.7607C168.841 36.7607 171.361 35.9907 173.481 34.4407C175.611 32.9007 176.901 30.6807 177.361 28.3007H170.091C169.401 29.9307 168.011 30.7507 165.911 30.7507C164.501 30.7507 163.411 30.3307 162.641 29.5007C161.871 28.6707 161.481 27.6007 161.481 26.3007V25.7107H177.501H177.511V21.0107C177.501 17.7907 176.471 15.1007 174.401 12.9507ZM169.931 20.9307H161.481V20.3907C161.481 17.1607 162.911 15.5507 165.751 15.5507C167.121 15.5507 168.161 15.9507 168.871 16.7707C169.581 17.5907 169.931 18.6607 169.931 20.0007V20.9307V20.9307Z" fill="white"/>
<path d="M160.011 0.150391L147.181 23.9504V36.7904H138.731V23.9504L126.551 0.150391H135.741L142.941 15.9404L150.811 0.150391H160.011Z" fill="white"/>
<path d="M69.5593 0.151123L68.6133 1.94727L89.176 12.7771L90.122 10.981L69.5593 0.151123Z" fill="#FFD132"/>
<path d="M80.9651 3.74578L70.0781 14.4238L71.4995 15.873L82.3865 5.19499L80.9651 3.74578Z" fill="#FFD132"/>
<path d="M68.6244 0.152458L47.127 11.1123L48.049 12.9208L69.5464 1.96099L68.6244 0.152458Z" fill="#FFD132"/>
<path d="M70.0855 0.930596L68.0703 1.1748L69.7786 15.2711L71.7938 15.0269L70.0855 0.930596Z" fill="#FFD132"/>
<path d="M62.6407 71.8501L60.7207 71.1901L69.8307 44.8501L80.5807 25.6101L88.7007 11.3701L90.4707 12.3701L82.3507 26.6101L71.6807 45.6801L62.6407 71.8501Z" fill="#FFD132"/>
<path d="M48.4494 89.7998L46.8594 88.5398L61.1394 70.5598L71.6194 69.5098L71.8194 71.5298L62.1994 72.4998L48.4494 89.7998Z" fill="#FFD132"/>
<path d="M91.6809 39.4596L70.5609 16.3996L48.0409 27.5896L47.1309 25.7696L71.0309 13.8896L93.1809 38.0896L91.6809 39.4596Z" fill="#FFD132"/>
<path d="M47.865 11.0139L47.5918 13.0254L70.65 16.1575L70.9233 14.146L47.865 11.0139Z" fill="#FFD132"/>
<path d="M92.146 37.7968L70.5059 44.209L71.0826 46.1554L92.7227 39.7432L92.146 37.7968Z" fill="#FFD132"/>
<path d="M82.3205 58.1404L70.3205 46.1504L44.0605 42.7604L81.0305 25.1904L81.9105 27.0204L51.1805 41.6304L71.2705 44.2204L83.7505 56.7104L82.3205 58.1404Z" fill="#FFD132"/>
<path d="M70.3165 44.3024L47.1426 56.5273L48.0898 58.3229L71.2637 46.098L70.3165 44.3024Z" fill="#FFD132"/>
<path d="M94.1793 27.5497L80.5393 27.0897L78.5293 6.62969L80.5593 6.42969L82.3893 25.1197L94.2393 25.5197L94.1793 27.5497Z" fill="#FFD132"/>
<path d="M70.0107 14.4793L46.8535 41.5322L48.3957 42.8523L71.5529 15.7994L70.0107 14.4793Z" fill="#FFD132"/>
<path d="M61.5504 72.8301L46.9004 58.1401L48.3404 56.7101L61.8104 70.2101L82.4704 56.5801L83.5904 58.2701L61.5504 72.8301Z" fill="#FFD132"/>
<path d="M47.62 90.42L37.88 83.93L22.91 71.32L11.31 57.91L1.81 38.9L0 26.44L4.7 11.27L13.06 3.52L26.17 0L38.2 2.79L43.96 6.51L47.63 10.47L51.49 6.34L57.37 2.65L69.08 0L82.18 3.51L90.54 11.26L95.24 26.43L93.33 39.21L83.8 58.12L72.45 71.21L57.45 83.86L47.62 90.42ZM13.07 56.89L24.33 69.88L39.1 82.3L47.62 87.97L56.23 82.23L71.03 69.76L82.18 56.88L91.45 38.44L93.17 26.59L88.77 12.38L81.18 5.34L69.04 2.1L58 4.6L52.7 7.99L47.63 13.47L42.56 7.99L37.26 4.6L26.21 2.1L14.07 5.34L6.48 12.38L2.08 26.6L3.8 38.44L13.07 56.89Z" fill="#FFD132"/>
<path d="M25.6998 0.149047L5.13477 10.9766L6.08054 12.7729L26.6456 1.94539L25.6998 0.149047Z" fill="#FFD132"/>
<path d="M14.2737 3.67732L12.8477 5.12207L23.7367 15.8703L25.1627 14.4256L14.2737 3.67732Z" fill="#FFD132"/>
<path d="M26.6234 0.151435L25.7012 1.95996L47.1986 12.9222L48.1208 11.1137L26.6234 0.151435Z" fill="#FFD132"/>
<path d="M25.1507 0.9247L23.4453 15.0225L25.4607 15.2663L27.1661 1.1685L25.1507 0.9247Z" fill="#FFD132"/>
<path d="M32.5993 71.8501L23.4893 45.5101L12.8893 26.6001L4.7793 12.3701L6.5493 11.3701L14.6593 25.6001L25.3393 44.6901L34.5293 71.1901L32.5993 71.8501Z" fill="#FFD132"/>
<path d="M46.7897 89.7998L33.0397 72.4898L23.4297 71.5298L23.6297 69.5098L34.0897 70.5498L48.3797 88.5398L46.7897 89.7998Z" fill="#FFD132"/>
<path d="M3.57031 39.4596L2.07031 38.0896L24.2203 13.8896L48.1103 25.7696L47.2103 27.5896L24.6903 16.3996L3.57031 39.4596Z" fill="#FFD132"/>
<path d="M47.3766 11.0032L24.3184 14.1377L24.5918 16.1492L47.65 13.0148L47.3766 11.0032Z" fill="#FFD132"/>
<path d="M3.10952 37.8044L2.5332 39.751L24.1756 46.1586L24.7519 44.212L3.10952 37.8044Z" fill="#FFD132"/>
<path d="M12.9302 58.1404L11.4902 56.7104L23.9802 44.2204L44.0602 41.6304L13.3402 27.0204L14.2102 25.1904L51.1802 42.7604L24.9302 46.1504L12.9302 58.1404Z" fill="#FFD132"/>
<path d="M24.923 44.2873L23.9746 46.082L47.138 58.3227L48.0864 56.5279L24.923 44.2873Z" fill="#FFD132"/>
<path d="M1.07 27.5497L1 25.5197L12.86 25.1197L14.76 6.42969L16.78 6.63969L14.7 27.0897L1.07 27.5497Z" fill="#FFD132"/>
<path d="M25.2234 14.484L23.6816 15.8047L46.8495 42.8505L48.3913 41.5298L25.2234 14.484Z" fill="#FFD132"/>
<path d="M33.7004 72.8301L11.6504 58.2701L12.7704 56.5801L33.4304 70.2101L46.9004 56.7101L48.3404 58.1401L33.7004 72.8301Z" fill="#FFD132"/>
<path d="M46.7523 12.0089L46.6016 89.1689L48.6316 89.1729L48.7823 12.0129L46.7523 12.0089Z" fill="#FFD132"/>
<path d="M150.289 70.3598C150.289 77.1398 145.889 81.0598 138.269 81.0598H130.209V90.8398H126.689V60.0098H138.269C145.889 60.0098 150.289 63.7998 150.289 70.3598ZM146.899 70.4498C146.899 65.7398 143.689 63.2698 138.139 63.2698H130.209V77.7998H138.139C143.689 77.7998 146.899 75.2898 146.899 70.4498Z" fill="white"/>
<path d="M178.959 90.8398L172.489 80.9798C171.869 81.0198 171.209 81.0698 170.509 81.0698H162.319V90.8498H158.799V60.0098H170.509C178.219 60.0098 182.659 63.7998 182.659 70.3598C182.659 75.4198 180.149 78.8998 175.699 80.3098L182.969 90.8298H178.959V90.8398ZM170.509 77.7998C176.099 77.7998 179.269 75.2898 179.269 70.4498C179.269 65.7398 176.099 63.2698 170.509 63.2698H162.319V77.7998H170.509Z" fill="white"/>
<path d="M222.649 75.4297C222.649 84.0997 215.519 90.9697 206.529 90.9697C197.499 90.9697 190.369 84.0997 190.369 75.4297C190.369 66.7597 197.499 59.9297 206.529 59.9297C215.519 59.9297 222.649 66.7497 222.649 75.4297ZM193.939 75.4297C193.939 82.2497 199.659 87.7597 206.529 87.7597C213.399 87.7597 219.039 82.2597 219.039 75.4297C219.039 68.5997 213.399 63.1897 206.529 63.1897C199.659 63.1797 193.939 68.5997 193.939 75.4297Z" fill="white"/>
<path d="M250.79 60.0098V63.2698H240.71V90.8298H237.19V63.2698H227.15V60.0098H250.79V60.0098Z" fill="white"/>
<path d="M285.94 75.4297C285.94 84.0997 278.81 90.9697 269.82 90.9697C260.79 90.9697 253.66 84.0997 253.66 75.4297C253.66 66.7597 260.79 59.9297 269.82 59.9297C278.8 59.9297 285.94 66.7497 285.94 75.4297ZM257.23 75.4297C257.23 82.2497 262.95 87.7597 269.82 87.7597C276.69 87.7597 282.33 82.2597 282.33 75.4297C282.33 68.5997 276.69 63.1897 269.82 63.1897C262.95 63.1897 257.23 68.5997 257.23 75.4297Z" fill="white"/>
<path d="M307.47 63.1399C300.51 63.1399 294.92 68.5599 294.92 75.3799C294.92 82.1599 300.51 87.6699 307.47 87.6699C310.86 87.6699 314.16 86.2599 316.58 83.9699L318.74 86.2999C315.7 89.1599 311.56 90.9699 307.29 90.9699C298.39 90.9699 291.35 84.0999 291.35 75.3799C291.35 66.7499 298.48 59.9199 307.42 59.9199C311.65 59.9199 315.74 61.6399 318.69 64.4099L316.57 66.9599C314.21 64.5899 310.86 63.1399 307.47 63.1399Z" fill="white"/>
<path d="M356.36 75.4297C356.36 84.0997 349.23 90.9697 340.24 90.9697C331.21 90.9697 324.08 84.0997 324.08 75.4297C324.08 66.7597 331.21 59.9297 340.24 59.9297C349.22 59.9297 356.36 66.7497 356.36 75.4297ZM327.65 75.4297C327.65 82.2497 333.37 87.7597 340.24 87.7597C347.11 87.7597 352.75 82.2597 352.75 75.4297C352.75 68.5997 347.11 63.1897 340.24 63.1897C333.37 63.1897 327.65 68.5997 327.65 75.4297Z" fill="white"/>
<path d="M368.95 60.0098V87.5798H382.47V90.8398H365.43V60.0098H368.95Z" fill="white"/>
</svg>
